<?xml version="1.0" encoding="utf-8"?>
<!-- Generator: Adobe Illustrator 18.1.1, SVG Export Plug-In . SVG Version: 6.00 Build 0)  -->
<svg version="1.1" xmlns="http://www.w3.org/2000/svg" xmlns:xlink="http://www.w3.org/1999/xlink" x="0px" y="0px"
	 viewBox="0 0 288.7 183.2" enable-background="new 0 0 288.7 183.2" xml:space="preserve">
<g id="guides" display="none">
</g>
<g id="composition" display="none">
	<g display="inline">
		<g>
			<defs>
				<rect id="SVGID_1_" x="18.7" y="17.8" width="190.9" height="147"/>
			</defs>
			<clipPath id="SVGID_2_">
				<use xlink:href="#SVGID_1_"  overflow="visible"/>
			</clipPath>
			
				<line clip-path="url(#SVGID_2_)" fill="none" stroke="#EC008C" stroke-linecap="round" x1="114.1" y1="169.1" x2="114.1" y2="13.6"/>
			
				<line clip-path="url(#SVGID_2_)" fill="none" stroke="#EC008C" stroke-linecap="round" x1="213.8" y1="91.2" x2="14.4" y2="91.2"/>
			
				<line clip-path="url(#SVGID_2_)" fill="none" stroke="#EC008C" stroke-linecap="round" x1="18.7" y1="164.8" x2="209.5" y2="17.8"/>
			
				<line clip-path="url(#SVGID_2_)" fill="none" stroke="#EC008C" stroke-linecap="round" x1="18.7" y1="17.8" x2="209.5" y2="164.8"/>
			<polygon clip-path="url(#SVGID_2_)" fill="none" stroke="#EC008C" stroke-linecap="round" points="18.7,91.3 114.1,164.8 
				209.5,91.3 114.1,17.8 			"/>
		</g>
	</g>
</g>
<g id="cube">
	
		<rect x="91.5" y="64.5" fill="none" stroke="#000000" stroke-width="2" stroke-linecap="round" stroke-linejoin="round" stroke-miterlimit="10" width="95" height="63.8"/>
	
		<rect x="111.1" y="48.9" fill="none" stroke="#000000" stroke-width="2" stroke-linecap="round" stroke-linejoin="round" stroke-miterlimit="10" width="95" height="63.8"/>
	
		<line fill="none" stroke="#000000" stroke-width="2" stroke-linecap="round" stroke-linejoin="round" stroke-miterlimit="10" x1="91.5" y1="64.5" x2="111.1" y2="48.9"/>
	
		<line fill="none" stroke="#000000" stroke-width="2" stroke-linecap="round" stroke-linejoin="round" stroke-miterlimit="10" x1="205.1" y1="48.9" x2="186.5" y2="64.5"/>
	
		<polyline fill="none" stroke="#000000" stroke-width="2" stroke-linecap="round" stroke-linejoin="round" stroke-miterlimit="10" points="
		205.9,113.1 187.2,128.2 91.5,128.2 111.1,112.7 	"/>
</g>
<g id="hollow_stars" display="none">
	<g display="inline">
		<g>
			<path d="M47.9,43.9c1.1,1.9,2.1,3.8,3.2,5.7c0.3,0.5,0.9,0.2,0.9-0.3c0.3-3.4,0.2-6.8-0.3-10.3c-0.1-0.4-0.6-0.5-0.8-0.2
				c-2,2.2-4.1,4.3-6.1,6.5c-0.3,0.4,0,1,0.5,0.8c3.5-0.9,7-1.9,10.4-3.1c0.4-0.1,0.5-0.9,0-1c-3.1-0.5-6.2-1.2-9.2-2.1
				c-0.4-0.1-0.7,0.3-0.6,0.6c0.4,1.3,1.2,2.2,2.4,2.9c0.6,0.3,1.1-0.5,0.5-0.9c-1-0.6-1.5-1.3-1.9-2.3c-0.2,0.2-0.4,0.4-0.6,0.6
				c3,0.9,6.1,1.6,9.2,2.1c0-0.3,0-0.6,0-1c-3.4,1.1-6.9,2.1-10.4,3.1c0.2,0.3,0.3,0.6,0.5,0.8c2-2.2,4.1-4.3,6.1-6.5
				c-0.3-0.1-0.6-0.1-0.8-0.2c0.5,3.3,0.6,6.6,0.3,10c0.3-0.1,0.6-0.2,0.9-0.3c-1.1-1.9-2.1-3.8-3.2-5.7
				C48.4,42.8,47.6,43.3,47.9,43.9L47.9,43.9z"/>
		</g>
	</g>
	<g display="inline">
		<g>
			<path d="M200.6,86.9c1,4,2.7,7.7,5.1,11.1c0.3,0.4,0.9,0.3,0.9-0.3c0.3-4.3,0.6-8.5,1-12.8c0-0.5-0.6-0.6-0.9-0.4
				c-2.9,2.6-5.8,5.2-8.7,7.7c-0.3,0.3-0.1,0.8,0.4,0.9c3.4,0.1,6.8,0.1,10.3,0c0.5,0,0.6-0.5,0.4-0.9c-2.3-2.7-4.8-5.1-7.6-7.3
				c-0.5-0.4-1,0.5-0.5,0.9c2.7,2.1,5.2,4.5,7.4,7.1c0.1-0.3,0.2-0.6,0.4-0.9c-3.4,0.1-6.8,0.1-10.3,0c0.1,0.3,0.2,0.6,0.4,0.9
				c2.9-2.6,5.8-5.2,8.7-7.7c-0.3-0.1-0.6-0.2-0.9-0.4c-0.3,4.3-0.6,8.5-1,12.8c0.3-0.1,0.6-0.2,0.9-0.3c-2.3-3.3-4-6.9-5-10.8
				C201.4,86,200.4,86.3,200.6,86.9L200.6,86.9z"/>
		</g>
	</g>
	<g display="inline">
		<g>
			<path d="M111.7,154.7c0.3,3.1,0.9,6.2,1.8,9.2c0.1,0.4,0.7,0.5,0.9,0.1c1.4-3.2,2.7-6.3,3.9-9.6c0.1-0.3-0.3-0.7-0.6-0.6
				c-3.1,1.2-6.2,2.6-9.1,4.2c-0.4,0.2-0.2,0.9,0.3,0.9c2.9,0.1,5.8,0.4,8.7,1.1c0.6,0.1,0.9-0.6,0.4-0.9c-2.1-1.3-3.8-3-5.2-5
				c-0.4-0.5-1.2,0-0.9,0.5c1.5,2.2,3.4,4,5.6,5.4c0.1-0.3,0.3-0.6,0.4-0.9c-2.9-0.7-5.9-1-8.9-1.1c0.1,0.3,0.2,0.6,0.3,0.9
				c2.9-1.6,5.8-2.9,8.9-4.1c-0.2-0.2-0.4-0.4-0.6-0.6c-1.2,3.1-2.5,6.3-3.8,9.3c0.3,0,0.6,0.1,0.9,0.1c-0.9-2.9-1.5-5.9-1.8-9
				C112.7,154.1,111.7,154.1,111.7,154.7L111.7,154.7z"/>
		</g>
	</g>
	<g display="inline">
		<g>
			<path d="M22.5,86.8c1.6,2.9,3.2,5.7,4.8,8.6c0.2,0.4,0.8,0.3,0.9-0.1c1-3.4,1.9-6.8,2.8-10.2c0.1-0.4-0.4-0.8-0.7-0.6
				c-3.7,2.5-7.3,5-11,7.5c-0.4,0.3-0.3,0.9,0.3,0.9c3.8,0,7.5-0.4,11.1-1.2c0.4-0.1,0.5-0.7,0.1-0.9c-2.8-1.4-5.5-3-7.9-5
				c-0.5-0.4-1.2,0.3-0.7,0.7c2.5,2,5.2,3.7,8.1,5.1c0-0.3,0.1-0.6,0.1-0.9c-3.6,0.8-7.2,1.2-10.9,1.2c0.1,0.3,0.2,0.6,0.3,0.9
				c3.7-2.5,7.3-5,11-7.5c-0.2-0.2-0.5-0.4-0.7-0.6c-0.9,3.4-1.9,6.8-2.8,10.2c0.3,0,0.6-0.1,0.9-0.1c-1.6-2.9-3.2-5.7-4.8-8.6
				C23,85.8,22.2,86.3,22.5,86.8L22.5,86.8z"/>
		</g>
	</g>
	<g display="inline">
		<g>
			<path d="M111.6,24c0.4,2.1,1.1,4.2,2,6.1c0.2,0.3,0.7,0.3,0.9,0c1.3-2.4,2.6-4.8,3.9-7.2c0.2-0.3,0-0.8-0.4-0.8
				c-3.1,0.4-5.9,1.4-8.6,2.9c-0.4,0.2-0.3,0.8,0.1,0.9c2.6,0.8,5.2,1.8,7.8,2.8c0.4,0.2,0.8-0.4,0.6-0.7c-1.8-3-3.3-6.2-4.6-9.4
				c-0.2-0.4-0.8-0.5-1,0c-0.5,1.7-0.6,3.4-0.4,5.2c0.1,0.6,1.1,0.6,1,0c-0.2-1.7-0.1-3.2,0.3-4.9c-0.3,0-0.6,0-1,0
				c1.3,3.3,2.9,6.5,4.7,9.6c0.2-0.2,0.4-0.5,0.6-0.7c-2.6-1-5.2-2-7.8-2.8c0,0.3,0.1,0.6,0.1,0.9c2.5-1.4,5.2-2.4,8.1-2.8
				c-0.1-0.3-0.3-0.5-0.4-0.8c-1.3,2.4-2.6,4.8-3.9,7.2c0.3,0,0.6,0,0.9,0c-0.9-1.9-1.5-3.8-1.9-5.9C112.4,23.1,111.4,23.4,111.6,24
				L111.6,24z"/>
		</g>
	</g>
	<g display="inline">
		<g>
			<path d="M177.3,140.4c1.4,2.5,2.7,5.1,4.1,7.6c0.2,0.4,0.8,0.3,0.9-0.1c1-3.6,1.9-7.1,2.5-10.8c0.1-0.4-0.3-0.8-0.7-0.6
				c-3.4,1.9-6.7,3.9-9.9,6.2c-0.4,0.3-0.3,0.9,0.3,0.9c3.6-0.1,7.3-0.1,10.9-0.2c0.6,0,0.7-0.8,0.1-1c-3-0.9-5.9-1.8-8.8-2.8
				c-0.6-0.2-0.9,0.8-0.3,1c2.9,1,5.9,1.9,8.8,2.8c0-0.3,0.1-0.7,0.1-1c-3.6,0.1-7.3,0.1-10.9,0.2c0.1,0.3,0.2,0.6,0.3,0.9
				c3.2-2.3,6.5-4.2,9.9-6.2c-0.2-0.2-0.5-0.4-0.7-0.6c-0.7,3.6-1.5,7.2-2.5,10.8c0.3,0,0.6-0.1,0.9-0.1c-1.4-2.5-2.7-5.1-4.1-7.6
				C177.8,139.3,177,139.8,177.3,140.4L177.3,140.4z"/>
		</g>
	</g>
</g>
<g id="type">
</g>
<g id="filled_stars">
	<path d="M233.6,90.4c-0.5-0.5-1.1-1-1.6-1.5c0.2-1.4,0.4-2.8,0.6-4.1c0.1-0.5-0.5-0.7-0.8-0.3c-0.6,1-1.4,1.9-2.1,2.7
		c-0.6-0.5-1.3-0.9-1.9-1.3c-0.2-0.1-0.5,0-0.6,0.2c-0.5,1,0.2,2,0.6,2.9c-0.9,0.7-1.8,1.3-2.8,1.9c-0.3,0.1-0.2,0.4-0.1,0.6
		c0.1,0.1,0.2,0.3,0.4,0.3c1.3,0,2.6,0,3.8-0.1c0.6,1.3,1.2,2.5,1.8,3.8c0.2,0.4,0.8,0.2,0.8-0.2c0-1.3,0-2.5,0.1-3.8
		c0.6-0.1,1.1-0.1,1.7-0.2C233.7,91,233.8,90.6,233.6,90.4z"/>
	<path d="M210.1,140.7c-0.7-0.2-1.4-0.2-2.1-0.3c0.2-1,0.4-1.9,0.8-2.9c0.1-0.4-0.4-0.8-0.7-0.6c-1.2,0.7-1.8,1.8-2.7,2.8
		c-0.2,0.2-0.3,0.3-0.5,0.4c-0.6-0.1-1.2-0.2-1.8-0.5c-0.1-0.1-0.2,0-0.3,0c-0.4,0-0.7,0.5-0.4,0.9c0.3,0.4,0.6,0.7,0.8,1.1
		c-0.7,0.5-1.4,1-2,1.6c0,0,0,0,0,0c0,0,0,0,0,0c0,0-0.1,0.1-0.1,0.1c-0.5,0.4,0.1,1,0.6,0.8c1-0.4,1.9-0.8,2.9-1.1
		c0.6,1.4,1.1,2.8,1.7,4.1c0.2,0.5,0.9,0.5,1-0.1c0.1-1.6,0.2-3.3,0.5-4.9c0.8-0.2,1.6-0.3,2.4-0.4
		C210.6,141.6,210.5,140.8,210.1,140.7z"/>
	<path d="M143.2,158.7c-0.7-0.3-1.2-0.8-1.7-1.4c0.4-0.9,0.8-1.9,1.2-2.8c0.2-0.5-0.2-0.9-0.7-0.7c-0.8,0.4-1.7,0.8-2.5,1.2
		c-0.5-0.6-1.1-1.1-1.8-1.4c-0.2-0.1-0.3-0.1-0.4,0c-0.3-0.1-0.8,0.2-0.6,0.6c0.3,0.7,0.5,1.3,0.6,2c-1,0.5-1.9,1.1-2.9,1.7
		c-0.5,0.3-0.2,1.1,0.4,0.9c1-0.4,2-0.5,3-0.5c0.4,1.4,0.7,2.8,1.3,4.2c0.2,0.4,0.9,0.6,1,0c0.2-1.3,0.5-2.5,0.9-3.7
		c0.6,0.2,1.1,0.5,1.7,0.8C143.3,159.8,143.8,159,143.2,158.7z"/>
	<path d="M56.3,89.5c-0.6-0.3-1.3-0.6-1.9-1c0.3-1,0.7-2,1.1-3c0.2-0.5-0.2-0.9-0.7-0.7c-0.5,0.2-0.6,0.4-1,0.8
		c-0.6,0.6-1.2,1.1-1.8,1.6c-1.5-0.8-2.9-1.6-4.3-2.6c-0.5-0.3-0.9,0.4-0.6,0.8c-0.1,0.1-0.1,0.3,0,0.4c0.7,1.2,1.3,2.3,2,3.5
		c-1.3,0.9-2.5,1.8-3.8,2.7c-0.5,0.4-0.1,1.2,0.5,0.9c1.4-0.7,2.9-1.2,4.3-1.7c0.6,1.1,1.2,2.1,1.8,3.2c0.2,0.3,0.9,0.3,0.9-0.1
		c0.2-1.3,0.5-2.6,0.8-3.8c0.8-0.1,1.5-0.2,2.3-0.2C56.5,90.4,56.8,89.7,56.3,89.5z"/>
	<path d="M79.8,41.4c-0.8-0.1-1.6-0.3-2.4-0.4c0.1-0.9,0.3-2-0.2-2.7c-0.1-0.1-0.2-0.3-0.4-0.2c-1.1,0.1-1.7,1.3-2.3,2.2
		c-0.8-0.2-1.7-0.5-2.5-0.8c-0.3-0.1-0.5,0.1-0.6,0.4c-0.2,0.2-0.4,0.5-0.2,0.8c0.5,0.6,1,1.3,1.4,2c-0.7,0.9-1.4,1.8-2.1,2.7
		c-0.4,0.4,0.1,1,0.6,0.8c0.9-0.4,1.9-0.9,2.8-1.3c0.7,1.2,1.3,2.4,1.8,3.6c0.2,0.5,0.9,0.2,0.9-0.3c0.2-1.6,0.3-3.1,0.5-4.7
		c0.9-0.4,1.9-0.7,2.8-1C80.5,42.2,80.4,41.5,79.8,41.4z"/>
	<path d="M143.8,22.7c-1-0.2-1.9-0.2-2.9-0.2c0-0.5,0.1-1,0.1-1.5c0-0.3-0.3-0.6-0.6-0.5c-1,0.4-1.9,1-2.6,1.7
		c-0.1,0-0.8-0.8-0.9-0.8c0,0,0,0,0,0c-0.2-0.6-1.2-0.3-1,0.3c0,0,0,0.1,0,0.1c0,0.1,0,0.3,0.1,0.4c0.1,0.2,0.6,1,0.7,1.2
		c-0.8,1-1.6,2.1-2.5,3c-0.4,0.4,0.1,1,0.6,0.8c0.9-0.5,1.8-0.9,2.8-1.3c0.5,1.4,1,2.9,1.6,4.3c0.2,0.5,0.9,0.4,1-0.1
		c0.2-1.8,0.3-3.6,0.5-5.4c1-0.4,2-0.7,3.1-1C144.2,23.5,144.3,22.8,143.8,22.7z"/>
</g>
<g id="white_logo" display="none">
	
		<rect x="66.3" y="64.9" display="inline" fill="none" stroke="#FFFFFF" stroke-width="2" stroke-linecap="round" stroke-linejoin="round" stroke-miterlimit="10" width="95" height="63.8"/>
	
		<rect x="85.9" y="49.3" display="inline" fill="none" stroke="#FFFFFF" stroke-width="2" stroke-linecap="round" stroke-linejoin="round" stroke-miterlimit="10" width="95" height="63.8"/>
	
		<line display="inline" fill="none" stroke="#FFFFFF" stroke-width="2" stroke-linecap="round" stroke-linejoin="round" stroke-miterlimit="10" x1="66.3" y1="64.9" x2="85.9" y2="49.3"/>
	
		<line display="inline" fill="none" stroke="#FFFFFF" stroke-width="2" stroke-linecap="round" stroke-linejoin="round" stroke-miterlimit="10" x1="179.9" y1="49.3" x2="161.3" y2="64.9"/>
	
		<polyline display="inline" fill="none" stroke="#FFFFFF" stroke-width="2" stroke-linecap="round" stroke-linejoin="round" stroke-miterlimit="10" points="
		180.7,113.5 162,128.6 66.3,128.6 85.9,113.1 	"/>
	<rect x="180.9" y="19.1" display="inline" fill="none" width="95.8" height="21.7"/>
	<text transform="matrix(1 0 0 1 180.9306 25.7183)" display="inline"><tspan x="0" y="0" fill="#FFFFFF" font-family="'NotCourierSans'" font-size="11" letter-spacing="11">amand</tspan><tspan x="89.2" y="0" fill="#FFFFFF" font-family="'NotCourierSans'" font-size="11">a</tspan><tspan x="0" y="13.2" fill="#FFFFFF" font-family="'NotCourierSans'" font-size="11" letter-spacing="6">anderso</tspan><tspan x="89.2" y="13.2" fill="#FFFFFF" font-family="'NotCourierSans'" font-size="11">n</tspan></text>
	<path display="inline" fill="#FFFFFF" d="M208.4,91.9c-0.6-0.6-1.3-1.2-2-1.8c0.2-1.6,0.4-3.3,0.8-4.9c0.1-0.6-0.6-0.9-0.9-0.4
		c-0.8,1.1-1.6,2.2-2.5,3.2c-0.7-0.5-1.5-1.1-2.3-1.6c-0.2-0.1-0.6-0.1-0.7,0.2c-0.5,1.2,0.2,2.3,0.7,3.4c-1,0.8-2.2,1.6-3.4,2.2
		c-0.3,0.2-0.3,0.5-0.1,0.7c0.1,0.2,0.2,0.3,0.5,0.3c1.5,0,3,0,4.6-0.1c0.7,1.5,1.4,3,2.2,4.5c0.2,0.4,0.9,0.2,0.9-0.3
		c0-1.5,0-3,0.1-4.5c0.7-0.1,1.3-0.1,2-0.2C208.5,92.7,208.6,92.1,208.4,91.9z"/>
	<path display="inline" fill="#FFFFFF" d="M184.9,141.1c-0.7-0.2-1.4-0.2-2.1-0.3c0.2-1,0.4-1.9,0.8-2.9c0.1-0.4-0.4-0.8-0.7-0.6
		c-1.2,0.7-1.8,1.8-2.7,2.8c-0.2,0.2-0.3,0.3-0.5,0.4c-0.6-0.1-1.2-0.2-1.8-0.5c-0.1-0.1-0.2,0-0.3,0c-0.4,0-0.7,0.5-0.4,0.9
		c0.3,0.4,0.6,0.7,0.8,1.1c-0.7,0.5-1.4,1-2,1.6c0,0,0,0,0,0c0,0,0,0,0,0c0,0-0.1,0.1-0.1,0.1c-0.5,0.4,0.1,1,0.6,0.8
		c1-0.4,1.9-0.8,2.9-1.1c0.6,1.4,1.1,2.8,1.7,4.1c0.2,0.5,0.9,0.5,1-0.1c0.1-1.6,0.2-3.3,0.5-4.9c0.8-0.2,1.6-0.3,2.4-0.4
		C185.4,142,185.3,141.2,184.9,141.1z"/>
	<path display="inline" fill="#FFFFFF" d="M118.1,159.1c-0.7-0.3-1.2-0.8-1.7-1.4c0.4-0.9,0.8-1.9,1.2-2.8c0.2-0.5-0.2-0.9-0.7-0.7
		c-0.8,0.4-1.7,0.8-2.5,1.2c-0.5-0.6-1.1-1.1-1.8-1.4c-0.2-0.1-0.3-0.1-0.4,0c-0.3-0.1-0.8,0.2-0.6,0.6c0.3,0.7,0.5,1.3,0.6,2
		c-1,0.5-1.9,1.1-2.9,1.7c-0.5,0.3-0.2,1.1,0.4,0.9c1-0.4,2-0.5,3-0.5c0.4,1.4,0.7,2.8,1.3,4.2c0.2,0.4,0.9,0.6,1,0
		c0.2-1.3,0.5-2.5,0.9-3.7c0.6,0.2,1.1,0.5,1.7,0.8C118.1,160.2,118.6,159.4,118.1,159.1z"/>
	<path display="inline" fill="#FFFFFF" d="M31.1,89.9c-0.6-0.3-1.3-0.6-1.9-1c0.3-1,0.7-2,1.1-3c0.2-0.5-0.2-0.9-0.7-0.7
		c-0.5,0.2-0.6,0.4-1,0.8c-0.6,0.6-1.2,1.1-1.8,1.6c-1.5-0.8-2.9-1.6-4.3-2.6c-0.5-0.3-0.9,0.4-0.6,0.8c-0.1,0.1-0.1,0.3,0,0.4
		c0.7,1.2,1.3,2.3,2,3.5c-1.3,0.9-2.5,1.8-3.8,2.7c-0.5,0.4-0.1,1.2,0.5,0.9c1.4-0.7,2.9-1.2,4.3-1.7c0.6,1.1,1.2,2.1,1.8,3.2
		c0.2,0.3,0.9,0.3,0.9-0.1c0.2-1.3,0.5-2.6,0.8-3.8c0.8-0.1,1.5-0.2,2.3-0.2C31.3,90.8,31.6,90.1,31.1,89.9z"/>
	<path display="inline" fill="#FFFFFF" d="M54.6,41.8c-0.8-0.1-1.6-0.3-2.4-0.4c0.1-0.9,0.3-2-0.2-2.7c-0.1-0.1-0.2-0.3-0.4-0.2
		c-1.1,0.1-1.7,1.3-2.3,2.2c-0.8-0.2-1.7-0.5-2.5-0.8c-0.3-0.1-0.5,0.1-0.6,0.4c-0.2,0.2-0.4,0.5-0.2,0.8c0.5,0.6,1,1.3,1.4,2
		c-0.7,0.9-1.4,1.8-2.1,2.7c-0.4,0.4,0.1,1,0.6,0.8c0.9-0.4,1.9-0.9,2.8-1.3c0.7,1.2,1.3,2.4,1.8,3.6c0.2,0.5,0.9,0.2,0.9-0.3
		c0.2-1.6,0.3-3.1,0.5-4.7c0.9-0.4,1.9-0.7,2.8-1C55.3,42.6,55.2,41.9,54.6,41.8z"/>
	<path display="inline" fill="#FFFFFF" d="M118.6,23.1c-1-0.2-1.9-0.2-2.9-0.2c0-0.5,0.1-1,0.1-1.5c0-0.3-0.3-0.6-0.6-0.5
		c-1,0.4-1.9,1-2.6,1.7c-0.1,0-0.8-0.8-0.9-0.8c0,0,0,0,0,0c-0.2-0.6-1.2-0.3-1,0.3c0,0,0,0.1,0,0.1c0,0.1,0,0.3,0.1,0.4
		c0.1,0.2,0.6,1,0.7,1.2c-0.8,1-1.6,2.1-2.5,3c-0.4,0.4,0.1,1,0.6,0.8c0.9-0.5,1.8-0.9,2.8-1.3c0.5,1.4,1,2.9,1.6,4.3
		c0.2,0.5,0.9,0.4,1-0.1c0.2-1.8,0.3-3.6,0.5-5.4c1-0.4,2-0.7,3.1-1C119,23.9,119.1,23.2,118.6,23.1z"/>
</g>
</svg>
