<?xml version="1.0" encoding="utf-8"?>
<!-- Generator: Adobe Illustrator 19.1.0, SVG Export Plug-In . SVG Version: 6.00 Build 0)  -->
<svg version="1.1" id="Layer_1" xmlns="http://www.w3.org/2000/svg" xmlns:xlink="http://www.w3.org/1999/xlink" x="0px" y="0px"
	 viewBox="-143 53.8 288.7 183.2" style="enable-background:new -143 53.8 288.7 183.2;" xml:space="preserve">
<style type="text/css">
	.st0{display:none;}
	.st1{display:inline;}
	.st2{clip-path:url(#SVGID_2_);fill:none;stroke:#EC008C;stroke-linecap:round;}
	.st3{clip-path:url(#SVGID_4_);fill:none;stroke:#EC008C;stroke-linecap:round;}
	.st4{clip-path:url(#SVGID_6_);fill:none;stroke:#EC008C;stroke-linecap:round;}
	.st5{clip-path:url(#SVGID_8_);fill:none;stroke:#EC008C;stroke-linecap:round;}
	.st6{clip-path:url(#SVGID_10_);fill:none;stroke:#EC008C;stroke-linecap:round;}
	.st7{fill:none;stroke:#000000;stroke-width:2;stroke-linecap:round;stroke-linejoin:round;stroke-miterlimit:10;}
	.st8{display:inline;fill:none;stroke:#FFFFFF;stroke-width:2;stroke-linecap:round;stroke-linejoin:round;stroke-miterlimit:10;}
	.st9{display:inline;fill:none;}
	.st10{display:inline;fill:#FFFFFF;}
	.st11{font-family:'NotCourierSans';}
	.st12{font-size:11px;}
	.st13{letter-spacing:11;}
	.st14{letter-spacing:5;}
</style>
<g id="guides" class="st0">
</g>
<g id="composition" class="st0">
	<g class="st1">
		<g>
			<g>
				<defs>
					<rect id="SVGID_1_" x="-124.3" y="71.6" width="190.9" height="147"/>
				</defs>
				<clipPath id="SVGID_2_">
					<use xlink:href="#SVGID_1_"  style="overflow:visible;"/>
				</clipPath>
				<line class="st2" x1="-28.9" y1="222.9" x2="-28.9" y2="67.4"/>
			</g>
			<g>
				<defs>
					<rect id="SVGID_3_" x="-124.3" y="71.6" width="190.9" height="147"/>
				</defs>
				<clipPath id="SVGID_4_">
					<use xlink:href="#SVGID_3_"  style="overflow:visible;"/>
				</clipPath>
				<line class="st3" x1="70.8" y1="145" x2="-128.6" y2="145"/>
			</g>
			<g>
				<defs>
					<rect id="SVGID_5_" x="-124.3" y="71.6" width="190.9" height="147"/>
				</defs>
				<clipPath id="SVGID_6_">
					<use xlink:href="#SVGID_5_"  style="overflow:visible;"/>
				</clipPath>
				<line class="st4" x1="-124.3" y1="218.6" x2="66.5" y2="71.6"/>
			</g>
			<g>
				<defs>
					<rect id="SVGID_7_" x="-124.3" y="71.6" width="190.9" height="147"/>
				</defs>
				<clipPath id="SVGID_8_">
					<use xlink:href="#SVGID_7_"  style="overflow:visible;"/>
				</clipPath>
				<line class="st5" x1="-124.3" y1="71.6" x2="66.5" y2="218.6"/>
			</g>
			<g>
				<defs>
					<rect id="SVGID_9_" x="-124.3" y="71.6" width="190.9" height="147"/>
				</defs>
				<clipPath id="SVGID_10_">
					<use xlink:href="#SVGID_9_"  style="overflow:visible;"/>
				</clipPath>
				<polygon class="st6" points="-124.3,145.1 -28.9,218.6 66.5,145.1 -28.9,71.6 				"/>
			</g>
		</g>
	</g>
</g>
<g id="cube">
	<rect x="-36.1" y="127" class="st7" width="64.5" height="43.3"/>
	<rect x="-22.8" y="116.4" class="st7" width="64.5" height="43.3"/>
	<line class="st7" x1="-36.1" y1="127" x2="-22.8" y2="116.4"/>
	<line class="st7" x1="41" y1="116.4" x2="28.4" y2="127"/>
	<polyline class="st7" points="41.6,160 28.9,170.3 -36.1,170.3 -22.8,159.8 	"/>
</g>
<g id="hollow_stars" class="st0">
	<g class="st1">
		<g>
			<path d="M-95.1,97.7c1.1,1.9,2.1,3.8,3.2,5.7c0.3,0.5,0.9,0.2,0.9-0.3c0.3-3.4,0.2-6.8-0.3-10.3c-0.1-0.4-0.6-0.5-0.8-0.2
				c-2,2.2-4.1,4.3-6.1,6.5c-0.3,0.4,0,1,0.5,0.8c3.5-0.9,7-1.9,10.4-3.1c0.4-0.1,0.5-0.9,0-1c-3.1-0.5-6.2-1.2-9.2-2.1
				c-0.4-0.1-0.7,0.3-0.6,0.6c0.4,1.3,1.2,2.2,2.4,2.9c0.6,0.3,1.1-0.5,0.5-0.9c-1-0.6-1.5-1.3-1.9-2.3c-0.2,0.2-0.4,0.4-0.6,0.6
				c3,0.9,6.1,1.6,9.2,2.1c0-0.3,0-0.6,0-1c-3.4,1.1-6.9,2.1-10.4,3.1c0.2,0.3,0.3,0.6,0.5,0.8c2-2.2,4.1-4.3,6.1-6.5
				c-0.3-0.1-0.6-0.1-0.8-0.2c0.5,3.3,0.6,6.6,0.3,10c0.3-0.1,0.6-0.2,0.9-0.3c-1.1-1.9-2.1-3.8-3.2-5.7
				C-94.6,96.6-95.4,97.1-95.1,97.7L-95.1,97.7z"/>
		</g>
	</g>
	<g class="st1">
		<g>
			<path d="M57.6,140.7c1,4,2.7,7.7,5.1,11.1c0.3,0.4,0.9,0.3,0.9-0.3c0.3-4.3,0.6-8.5,1-12.8c0-0.5-0.6-0.6-0.9-0.4
				c-2.9,2.6-5.8,5.2-8.7,7.7c-0.3,0.3-0.1,0.8,0.4,0.9c3.4,0.1,6.8,0.1,10.3,0c0.5,0,0.6-0.5,0.4-0.9c-2.3-2.7-4.8-5.1-7.6-7.3
				c-0.5-0.4-1,0.5-0.5,0.9c2.7,2.1,5.2,4.5,7.4,7.1c0.1-0.3,0.2-0.6,0.4-0.9c-3.4,0.1-6.8,0.1-10.3,0c0.1,0.3,0.2,0.6,0.4,0.9
				c2.9-2.6,5.8-5.2,8.7-7.7c-0.3-0.1-0.6-0.2-0.9-0.4c-0.3,4.3-0.6,8.5-1,12.8c0.3-0.1,0.6-0.2,0.9-0.3c-2.3-3.3-4-6.9-5-10.8
				C58.4,139.8,57.4,140.1,57.6,140.7L57.6,140.7z"/>
		</g>
	</g>
	<g class="st1">
		<g>
			<path d="M-31.3,208.5c0.3,3.1,0.9,6.2,1.8,9.2c0.1,0.4,0.7,0.5,0.9,0.1c1.4-3.2,2.7-6.3,3.9-9.6c0.1-0.3-0.3-0.7-0.6-0.6
				c-3.1,1.2-6.2,2.6-9.1,4.2c-0.4,0.2-0.2,0.9,0.3,0.9c2.9,0.1,5.8,0.4,8.7,1.1c0.6,0.1,0.9-0.6,0.4-0.9c-2.1-1.3-3.8-3-5.2-5
				c-0.4-0.5-1.2,0-0.9,0.5c1.5,2.2,3.4,4,5.6,5.4c0.1-0.3,0.3-0.6,0.4-0.9c-2.9-0.7-5.9-1-8.9-1.1c0.1,0.3,0.2,0.6,0.3,0.9
				c2.9-1.6,5.8-2.9,8.9-4.1c-0.2-0.2-0.4-0.4-0.6-0.6c-1.2,3.1-2.5,6.3-3.8,9.3c0.3,0,0.6,0.1,0.9,0.1c-0.9-2.9-1.5-5.9-1.8-9
				C-30.3,207.9-31.3,207.9-31.3,208.5L-31.3,208.5z"/>
		</g>
	</g>
	<g class="st1">
		<g>
			<path d="M-120.5,140.6c1.6,2.9,3.2,5.7,4.8,8.6c0.2,0.4,0.8,0.3,0.9-0.1c1-3.4,1.9-6.8,2.8-10.2c0.1-0.4-0.4-0.8-0.7-0.6
				c-3.7,2.5-7.3,5-11,7.5c-0.4,0.3-0.3,0.9,0.3,0.9c3.8,0,7.5-0.4,11.1-1.2c0.4-0.1,0.5-0.7,0.1-0.9c-2.8-1.4-5.5-3-7.9-5
				c-0.5-0.4-1.2,0.3-0.7,0.7c2.5,2,5.2,3.7,8.1,5.1c0-0.3,0.1-0.6,0.1-0.9c-3.6,0.8-7.2,1.2-10.9,1.2c0.1,0.3,0.2,0.6,0.3,0.9
				c3.7-2.5,7.3-5,11-7.5c-0.2-0.2-0.5-0.4-0.7-0.6c-0.9,3.4-1.9,6.8-2.8,10.2c0.3,0,0.6-0.1,0.9-0.1c-1.6-2.9-3.2-5.7-4.8-8.6
				C-120,139.6-120.8,140.1-120.5,140.6L-120.5,140.6z"/>
		</g>
	</g>
	<g class="st1">
		<g>
			<path d="M-31.4,77.8c0.4,2.1,1.1,4.2,2,6.1c0.2,0.3,0.7,0.3,0.9,0c1.3-2.4,2.6-4.8,3.9-7.2c0.2-0.3,0-0.8-0.4-0.8
				c-3.1,0.4-5.9,1.4-8.6,2.9c-0.4,0.2-0.3,0.8,0.1,0.9c2.6,0.8,5.2,1.8,7.8,2.8c0.4,0.2,0.8-0.4,0.6-0.7c-1.8-3-3.3-6.2-4.6-9.4
				c-0.2-0.4-0.8-0.5-1,0c-0.5,1.7-0.6,3.4-0.4,5.2c0.1,0.6,1.1,0.6,1,0c-0.2-1.7-0.1-3.2,0.3-4.9c-0.3,0-0.6,0-1,0
				c1.3,3.3,2.9,6.5,4.7,9.6c0.2-0.2,0.4-0.5,0.6-0.7c-2.6-1-5.2-2-7.8-2.8c0,0.3,0.1,0.6,0.1,0.9c2.5-1.4,5.2-2.4,8.1-2.8
				c-0.1-0.3-0.3-0.5-0.4-0.8c-1.3,2.4-2.6,4.8-3.9,7.2c0.3,0,0.6,0,0.9,0c-0.9-1.9-1.5-3.8-1.9-5.9C-30.6,76.9-31.6,77.2-31.4,77.8
				L-31.4,77.8z"/>
		</g>
	</g>
	<g class="st1">
		<g>
			<path d="M34.3,194.2c1.4,2.5,2.7,5.1,4.1,7.6c0.2,0.4,0.8,0.3,0.9-0.1c1-3.6,1.9-7.1,2.5-10.8c0.1-0.4-0.3-0.8-0.7-0.6
				c-3.4,1.9-6.7,3.9-9.9,6.2c-0.4,0.3-0.3,0.9,0.3,0.9c3.6-0.1,7.3-0.1,10.9-0.2c0.6,0,0.7-0.8,0.1-1c-3-0.9-5.9-1.8-8.8-2.8
				c-0.6-0.2-0.9,0.8-0.3,1c2.9,1,5.9,1.9,8.8,2.8c0-0.3,0.1-0.7,0.1-1c-3.6,0.1-7.3,0.1-10.9,0.2c0.1,0.3,0.2,0.6,0.3,0.9
				c3.2-2.3,6.5-4.2,9.9-6.2c-0.2-0.2-0.5-0.4-0.7-0.6c-0.7,3.6-1.5,7.2-2.5,10.8c0.3,0,0.6-0.1,0.9-0.1c-1.4-2.5-2.7-5.1-4.1-7.6
				C34.8,193.1,34,193.6,34.3,194.2L34.3,194.2z"/>
		</g>
	</g>
</g>
<g id="type">
</g>
<g id="filled_stars">
	<path d="M60.4,144.6c-0.3-0.3-0.7-0.7-1.1-1c0.1-1,0.3-1.9,0.4-2.8c0.1-0.3-0.3-0.5-0.5-0.2c-0.4,0.7-1,1.3-1.4,1.8
		c-0.4-0.3-0.9-0.6-1.3-0.9c-0.1-0.1-0.3,0-0.4,0.1c-0.3,0.7,0.1,1.4,0.4,2c-0.6,0.5-1.2,0.9-1.9,1.3c-0.2,0.1-0.1,0.3-0.1,0.4
		c0.1,0.1,0.1,0.2,0.3,0.2c0.9,0,1.8,0,2.6-0.1c0.4,0.9,0.8,1.7,1.2,2.6c0.1,0.3,0.5,0.1,0.5-0.1c0-0.9,0-1.7,0.1-2.6
		c0.4-0.1,0.7-0.1,1.2-0.1C60.4,145,60.5,144.7,60.4,144.6z"/>
	<path d="M44.4,178.8c-0.5-0.1-1-0.1-1.4-0.2c0.1-0.7,0.3-1.3,0.5-2c0.1-0.3-0.3-0.5-0.5-0.4c-0.8,0.5-1.2,1.2-1.8,1.9
		c-0.1,0.1-0.2,0.2-0.3,0.3c-0.4-0.1-0.8-0.1-1.2-0.3c-0.1-0.1-0.1,0-0.2,0c-0.3,0-0.5,0.3-0.3,0.6c0.2,0.3,0.4,0.5,0.5,0.7
		c-0.5,0.3-1,0.7-1.4,1.1l0,0l0,0l-0.1,0.1c-0.3,0.3,0.1,0.7,0.4,0.5c0.7-0.3,1.3-0.5,2-0.7c0.4,1,0.7,1.9,1.2,2.8
		c0.1,0.3,0.6,0.3,0.7-0.1c0.1-1.1,0.1-2.2,0.3-3.3c0.5-0.1,1.1-0.2,1.6-0.3C44.8,179.4,44.7,178.8,44.4,178.8z"/>
	<path d="M-1,191c-0.5-0.2-0.8-0.5-1.2-1c0.3-0.6,0.5-1.3,0.8-1.9c0.1-0.3-0.1-0.6-0.5-0.5c-0.5,0.3-1.2,0.5-1.7,0.8
		c-0.3-0.4-0.7-0.7-1.2-1c-0.1-0.1-0.2-0.1-0.3,0c-0.2-0.1-0.5,0.1-0.4,0.4c0.2,0.5,0.3,0.9,0.4,1.4c-0.7,0.3-1.3,0.7-2,1.2
		c-0.3,0.2-0.1,0.7,0.3,0.6c0.7-0.3,1.4-0.3,2-0.3c0.3,1,0.5,1.9,0.9,2.9c0.1,0.3,0.6,0.4,0.7,0c0.1-0.9,0.3-1.7,0.6-2.5
		c0.4,0.1,0.7,0.3,1.2,0.5C-1,191.7-0.6,191.2-1,191z"/>
	<path d="M-60,144c-0.4-0.2-0.9-0.4-1.3-0.7c0.2-0.7,0.5-1.4,0.7-2c0.1-0.3-0.1-0.6-0.5-0.5c-0.3,0.1-0.4,0.3-0.7,0.5
		c-0.4,0.4-0.8,0.7-1.2,1.1c-1-0.5-2-1.1-2.9-1.8c-0.3-0.2-0.6,0.3-0.4,0.5c-0.1,0.1-0.1,0.2,0,0.3c0.5,0.8,0.9,1.6,1.4,2.4
		c-0.9,0.6-1.7,1.2-2.6,1.8c-0.3,0.3-0.1,0.8,0.3,0.6c1-0.5,2-0.8,2.9-1.2c0.4,0.7,0.8,1.4,1.2,2.2c0.1,0.2,0.6,0.2,0.6-0.1
		c0.1-0.9,0.3-1.8,0.5-2.6c0.5-0.1,1-0.1,1.6-0.1C-59.9,144.6-59.7,144.1-60,144z"/>
	<path d="M-44.1,111.3c-0.5-0.1-1.1-0.2-1.6-0.3c0.1-0.6,0.2-1.4-0.1-1.8c-0.1-0.1-0.1-0.2-0.3-0.1c-0.7,0.1-1.2,0.9-1.6,1.5
		c-0.5-0.1-1.2-0.3-1.7-0.5c-0.2-0.1-0.3,0.1-0.4,0.3c-0.1,0.1-0.3,0.3-0.1,0.5c0.3,0.4,0.7,0.9,1,1.4c-0.5,0.6-1,1.2-1.4,1.8
		c-0.3,0.3,0.1,0.7,0.4,0.5c0.6-0.3,1.3-0.6,1.9-0.9c0.5,0.8,0.9,1.6,1.2,2.4c0.1,0.3,0.6,0.1,0.6-0.2c0.1-1.1,0.2-2.1,0.3-3.2
		c0.6-0.3,1.3-0.5,1.9-0.7C-43.6,111.9-43.7,111.4-44.1,111.3z"/>
	<path d="M-0.6,98.6c-0.7-0.1-1.3-0.1-2-0.1c0-0.3,0.1-0.7,0.1-1c0-0.2-0.2-0.4-0.4-0.3c-0.7,0.3-1.3,0.7-1.8,1.2
		c-0.1,0-0.5-0.5-0.6-0.5l0,0c-0.1-0.4-0.8-0.2-0.7,0.2V98c0,0.1,0,0.2,0.1,0.3c0.1,0.1,0.4,0.7,0.5,0.8c-0.5,0.7-1.1,1.4-1.7,2
		c-0.3,0.3,0.1,0.7,0.4,0.5c0.6-0.3,1.2-0.6,1.9-0.9c0.3,1,0.7,2,1.1,2.9c0.1,0.3,0.6,0.3,0.7-0.1c0.1-1.2,0.2-2.4,0.3-3.7
		c0.7-0.3,1.4-0.5,2.1-0.7C-0.3,99.2-0.3,98.7-0.6,98.6z"/>
</g>
<g id="white_logo" class="st0">
	<rect x="-76.7" y="118.7" class="st8" width="95" height="63.8"/>
	<rect x="-57.1" y="103.1" class="st8" width="95" height="63.8"/>
	<line class="st8" x1="-76.7" y1="118.7" x2="-57.1" y2="103.1"/>
	<line class="st8" x1="36.9" y1="103.1" x2="18.3" y2="118.7"/>
	<polyline class="st8" points="37.7,167.3 19,182.4 -76.7,182.4 -57.1,166.9 	"/>
	<rect x="37.9" y="72.9" class="st9" width="95.8" height="21.7"/>
	<text transform="matrix(1 0 0 1 37.9306 79.5183)" class="st10 st11 st12 st13">amand</text>
	<text transform="matrix(1 0 0 1 127.1306 79.5183)" class="st10 st11 st12">a</text>
	<text transform="matrix(1 0 0 1 37.9306 92.7183)" class="st10 st11 st12 st14">anderso</text>
	<text transform="matrix(1 0 0 1 127.1306 92.7183)" class="st10 st11 st12">n</text>
	<path class="st10" d="M65.4,145.7c-0.6-0.6-1.3-1.2-2-1.8c0.2-1.6,0.4-3.3,0.8-4.9c0.1-0.6-0.6-0.9-0.9-0.4
		c-0.8,1.1-1.6,2.2-2.5,3.2c-0.7-0.5-1.5-1.1-2.3-1.6c-0.2-0.1-0.6-0.1-0.7,0.2c-0.5,1.2,0.2,2.3,0.7,3.4c-1,0.8-2.2,1.6-3.4,2.2
		c-0.3,0.2-0.3,0.5-0.1,0.7c0.1,0.2,0.2,0.3,0.5,0.3c1.5,0,3,0,4.6-0.1c0.7,1.5,1.4,3,2.2,4.5c0.2,0.4,0.9,0.2,0.9-0.3
		c0-1.5,0-3,0.1-4.5c0.7-0.1,1.3-0.1,2-0.2C65.5,146.5,65.6,145.9,65.4,145.7z"/>
	<path class="st10" d="M41.9,194.9c-0.7-0.2-1.4-0.2-2.1-0.3c0.2-1,0.4-1.9,0.8-2.9c0.1-0.4-0.4-0.8-0.7-0.6
		c-1.2,0.7-1.8,1.8-2.7,2.8c-0.2,0.2-0.3,0.3-0.5,0.4c-0.6-0.1-1.2-0.2-1.8-0.5c-0.1-0.1-0.2,0-0.3,0c-0.4,0-0.7,0.5-0.4,0.9
		s0.6,0.7,0.8,1.1c-0.7,0.5-1.4,1-2,1.6l0,0l0,0l-0.1,0.1c-0.5,0.4,0.1,1,0.6,0.8c1-0.4,1.9-0.8,2.9-1.1c0.6,1.4,1.1,2.8,1.7,4.1
		c0.2,0.5,0.9,0.5,1-0.1c0.1-1.6,0.2-3.3,0.5-4.9c0.8-0.2,1.6-0.3,2.4-0.4C42.4,195.8,42.3,195,41.9,194.9z"/>
	<path class="st10" d="M-24.9,212.9c-0.7-0.3-1.2-0.8-1.7-1.4c0.4-0.9,0.8-1.9,1.2-2.8c0.2-0.5-0.2-0.9-0.7-0.7
		c-0.8,0.4-1.7,0.8-2.5,1.2c-0.5-0.6-1.1-1.1-1.8-1.4c-0.2-0.1-0.3-0.1-0.4,0c-0.3-0.1-0.8,0.2-0.6,0.6c0.3,0.7,0.5,1.3,0.6,2
		c-1,0.5-1.9,1.1-2.9,1.7c-0.5,0.3-0.2,1.1,0.4,0.9c1-0.4,2-0.5,3-0.5c0.4,1.4,0.7,2.8,1.3,4.2c0.2,0.4,0.9,0.6,1,0
		c0.2-1.3,0.5-2.5,0.9-3.7c0.6,0.2,1.1,0.5,1.7,0.8C-24.9,214-24.4,213.2-24.9,212.9z"/>
	<path class="st10" d="M-111.9,143.7c-0.6-0.3-1.3-0.6-1.9-1c0.3-1,0.7-2,1.1-3c0.2-0.5-0.2-0.9-0.7-0.7c-0.5,0.2-0.6,0.4-1,0.8
		c-0.6,0.6-1.2,1.1-1.8,1.6c-1.5-0.8-2.9-1.6-4.3-2.6c-0.5-0.3-0.9,0.4-0.6,0.8c-0.1,0.1-0.1,0.3,0,0.4c0.7,1.2,1.3,2.3,2,3.5
		c-1.3,0.9-2.5,1.8-3.8,2.7c-0.5,0.4-0.1,1.2,0.5,0.9c1.4-0.7,2.9-1.2,4.3-1.7c0.6,1.1,1.2,2.1,1.8,3.2c0.2,0.3,0.9,0.3,0.9-0.1
		c0.2-1.3,0.5-2.6,0.8-3.8c0.8-0.1,1.5-0.2,2.3-0.2C-111.7,144.6-111.4,143.9-111.9,143.7z"/>
	<path class="st10" d="M-88.4,95.6c-0.8-0.1-1.6-0.3-2.4-0.4c0.1-0.9,0.3-2-0.2-2.7c-0.1-0.1-0.2-0.3-0.4-0.2
		c-1.1,0.1-1.7,1.3-2.3,2.2c-0.8-0.2-1.7-0.5-2.5-0.8c-0.3-0.1-0.5,0.1-0.6,0.4c-0.2,0.2-0.4,0.5-0.2,0.8c0.5,0.6,1,1.3,1.4,2
		c-0.7,0.9-1.4,1.8-2.1,2.7c-0.4,0.4,0.1,1,0.6,0.8c0.9-0.4,1.9-0.9,2.8-1.3c0.7,1.2,1.3,2.4,1.8,3.6c0.2,0.5,0.9,0.2,0.9-0.3
		c0.2-1.6,0.3-3.1,0.5-4.7c0.9-0.4,1.9-0.7,2.8-1C-87.7,96.4-87.8,95.7-88.4,95.6z"/>
	<path class="st10" d="M-24.4,76.9c-1-0.2-1.9-0.2-2.9-0.2c0-0.5,0.1-1,0.1-1.5c0-0.3-0.3-0.6-0.6-0.5c-1,0.4-1.9,1-2.6,1.7
		c-0.1,0-0.8-0.8-0.9-0.8l0,0c-0.2-0.6-1.2-0.3-1,0.3V76c0,0.1,0,0.3,0.1,0.4c0.1,0.2,0.6,1,0.7,1.2c-0.8,1-1.6,2.1-2.5,3
		c-0.4,0.4,0.1,1,0.6,0.8c0.9-0.5,1.8-0.9,2.8-1.3c0.5,1.4,1,2.9,1.6,4.3c0.2,0.5,0.9,0.4,1-0.1c0.2-1.8,0.3-3.6,0.5-5.4
		c1-0.4,2-0.7,3.1-1C-24,77.7-23.9,77-24.4,76.9z"/>
</g>
</svg>
