<?xml version="1.0" encoding="utf-8"?>
<!-- Generator: Adobe Illustrator 19.1.0, SVG Export Plug-In . SVG Version: 6.00 Build 0)  -->
<svg version="1.1" id="Layer_1" xmlns="http://www.w3.org/2000/svg" xmlns:xlink="http://www.w3.org/1999/xlink" x="0px" y="0px"
	 viewBox="-143 53.8 288.7 183.2" style="enable-background:new -143 53.8 288.7 183.2;" xml:space="preserve">
<style type="text/css">
	.st0{display:none;}
	.st1{display:inline;}
	.st2{clip-path:url(#SVGID_2_);fill:none;stroke:#EC008C;stroke-linecap:round;}
	.st3{clip-path:url(#SVGID_4_);fill:none;stroke:#EC008C;stroke-linecap:round;}
	.st4{clip-path:url(#SVGID_6_);fill:none;stroke:#EC008C;stroke-linecap:round;}
	.st5{clip-path:url(#SVGID_8_);fill:none;stroke:#EC008C;stroke-linecap:round;}
	.st6{clip-path:url(#SVGID_10_);fill:none;stroke:#EC008C;stroke-linecap:round;}
	.st7{display:inline;fill:none;stroke:#FFFFFF;stroke-width:2;stroke-linecap:round;stroke-linejoin:round;stroke-miterlimit:10;}
	.st8{display:inline;fill:none;}
	.st9{enable-background:new    ;}
	.st10{fill:#FFFFFF;}
	.st11{display:inline;fill:#FFFFFF;}
</style>
<g id="guides" class="st0">
</g>
<g id="composition" class="st0">
	<g class="st1">
		<g>
			<g>
				<g>
					<g>
						<defs>
							<rect id="SVGID_1_" x="-410.3" y="179.2" width="190.9" height="147"/>
						</defs>
						<clipPath id="SVGID_2_">
							<use xlink:href="#SVGID_1_"  style="overflow:visible;"/>
						</clipPath>
						<line class="st2" x1="-314.9" y1="330.5" x2="-314.9" y2="175"/>
					</g>
				</g>
			</g>
			<g>
				<g>
					<g>
						<defs>
							<rect id="SVGID_3_" x="-410.3" y="179.2" width="190.9" height="147"/>
						</defs>
						<clipPath id="SVGID_4_">
							<use xlink:href="#SVGID_3_"  style="overflow:visible;"/>
						</clipPath>
						<line class="st3" x1="-215.2" y1="252.6" x2="-414.6" y2="252.6"/>
					</g>
				</g>
			</g>
			<g>
				<g>
					<g>
						<defs>
							<rect id="SVGID_5_" x="-410.3" y="179.2" width="190.9" height="147"/>
						</defs>
						<clipPath id="SVGID_6_">
							<use xlink:href="#SVGID_5_"  style="overflow:visible;"/>
						</clipPath>
						<line class="st4" x1="-410.3" y1="326.2" x2="-219.5" y2="179.2"/>
					</g>
				</g>
			</g>
			<g>
				<g>
					<g>
						<defs>
							<rect id="SVGID_7_" x="-410.3" y="179.2" width="190.9" height="147"/>
						</defs>
						<clipPath id="SVGID_8_">
							<use xlink:href="#SVGID_7_"  style="overflow:visible;"/>
						</clipPath>
						<line class="st5" x1="-410.3" y1="179.2" x2="-219.5" y2="326.2"/>
					</g>
				</g>
			</g>
			<g>
				<g>
					<g>
						<defs>
							<rect id="SVGID_9_" x="-410.3" y="179.2" width="190.9" height="147"/>
						</defs>
						<clipPath id="SVGID_10_">
							<use xlink:href="#SVGID_9_"  style="overflow:visible;"/>
						</clipPath>
						<polygon class="st6" points="-410.3,252.7 -314.9,326.2 -219.5,252.7 -314.9,179.2 						"/>
					</g>
				</g>
			</g>
		</g>
	</g>
</g>
<g id="cube">
	<path d="M35.5,177.9H-29c-0.3,0-0.5-0.2-0.5-0.5v-43.3c0-0.3,0.2-0.5,0.5-0.5h64.5c0.3,0,0.5,0.2,0.5,0.5v43.3
		C36,177.7,35.8,177.9,35.5,177.9z M-28.5,176.9H35v-42.3h-63.5V176.9z"/>
	<path d="M48.8,167.3h-64.5c-0.3,0-0.5-0.2-0.5-0.5v-43.3c0-0.3,0.2-0.5,0.5-0.5h64.5c0.3,0,0.5,0.2,0.5,0.5v43.3
		C49.3,167.1,49.1,167.3,48.8,167.3z M-15.1,166.3h63.5V124h-63.5V166.3z"/>
	<path d="M-28.9,134.6c-0.1,0-0.3-0.1-0.4-0.2c-0.2-0.2-0.1-0.5,0.1-0.7l13.3-10.6c0.2-0.2,0.5-0.1,0.7,0.1c0.2,0.2,0.1,0.5-0.1,0.7
		l-13.3,10.6C-28.7,134.6-28.8,134.6-28.9,134.6z"/>
	<path d="M35.5,134.6c-0.1,0-0.3-0.1-0.4-0.2c-0.2-0.2-0.2-0.5,0.1-0.7l12.6-10.6c0.2-0.2,0.5-0.2,0.7,0.1c0.2,0.2,0.2,0.5-0.1,0.7
		l-12.6,10.6C35.8,134.6,35.7,134.6,35.5,134.6z"/>
	<path d="M36,177.9h-65c-0.2,0-0.4-0.1-0.5-0.3s0-0.4,0.2-0.6l13.3-10.5c0.2-0.2,0.5-0.1,0.7,0.1c0.2,0.2,0.1,0.5-0.1,0.7l-12.2,9.6
		h63.4l12.6-10.2c0.2-0.2,0.5-0.1,0.7,0.1c0.2,0.2,0.1,0.5-0.1,0.7l-12.7,10.3C36.3,177.9,36.2,177.9,36,177.9z"/>
</g>
<g id="hollow_stars" class="st0">
	<g class="st1">
		<g>
			<path d="M-381.1,205.3c1.1,1.9,2.1,3.8,3.2,5.7c0.3,0.5,0.9,0.2,0.9-0.3c0.3-3.4,0.2-6.8-0.3-10.3c-0.1-0.4-0.6-0.5-0.8-0.2
				c-2,2.2-4.1,4.3-6.1,6.5c-0.3,0.4,0,1,0.5,0.8c3.5-0.9,7-1.9,10.4-3.1c0.4-0.1,0.5-0.9,0-1c-3.1-0.5-6.2-1.2-9.2-2.1
				c-0.4-0.1-0.7,0.3-0.6,0.6c0.4,1.3,1.2,2.2,2.4,2.9c0.6,0.3,1.1-0.5,0.5-0.9c-1-0.6-1.5-1.3-1.9-2.3c-0.2,0.2-0.4,0.4-0.6,0.6
				c3,0.9,6.1,1.6,9.2,2.1c0-0.3,0-0.6,0-1c-3.4,1.1-6.9,2.1-10.4,3.1c0.2,0.3,0.3,0.6,0.5,0.8c2-2.2,4.1-4.3,6.1-6.5
				c-0.3-0.1-0.6-0.1-0.8-0.2c0.5,3.3,0.6,6.6,0.3,10c0.3-0.1,0.6-0.2,0.9-0.3c-1.1-1.9-2.1-3.8-3.2-5.7
				C-380.6,204.2-381.4,204.7-381.1,205.3L-381.1,205.3z"/>
		</g>
	</g>
	<g class="st1">
		<g>
			<path d="M-228.4,248.3c1,4,2.7,7.7,5.1,11.1c0.3,0.4,0.9,0.3,0.9-0.3c0.3-4.3,0.6-8.5,1-12.8c0-0.5-0.6-0.6-0.9-0.4
				c-2.9,2.6-5.8,5.2-8.7,7.7c-0.3,0.3-0.1,0.8,0.4,0.9c3.4,0.1,6.8,0.1,10.3,0c0.5,0,0.6-0.5,0.4-0.9c-2.3-2.7-4.8-5.1-7.6-7.3
				c-0.5-0.4-1,0.5-0.5,0.9c2.7,2.1,5.2,4.5,7.4,7.1c0.1-0.3,0.2-0.6,0.4-0.9c-3.4,0.1-6.8,0.1-10.3,0c0.1,0.3,0.2,0.6,0.4,0.9
				c2.9-2.6,5.8-5.2,8.7-7.7c-0.3-0.1-0.6-0.2-0.9-0.4c-0.3,4.3-0.6,8.5-1,12.8c0.3-0.1,0.6-0.2,0.9-0.3c-2.3-3.3-4-6.9-5-10.8
				C-227.6,247.4-228.6,247.7-228.4,248.3L-228.4,248.3z"/>
		</g>
	</g>
	<g class="st1">
		<g>
			<path d="M-317.3,316.1c0.3,3.1,0.9,6.2,1.8,9.2c0.1,0.4,0.7,0.5,0.9,0.1c1.4-3.2,2.7-6.3,3.9-9.6c0.1-0.3-0.3-0.7-0.6-0.6
				c-3.1,1.2-6.2,2.6-9.1,4.2c-0.4,0.2-0.2,0.9,0.3,0.9c2.9,0.1,5.8,0.4,8.7,1.1c0.6,0.1,0.9-0.6,0.4-0.9c-2.1-1.3-3.8-3-5.2-5
				c-0.4-0.5-1.2,0-0.9,0.5c1.5,2.2,3.4,4,5.6,5.4c0.1-0.3,0.3-0.6,0.4-0.9c-2.9-0.7-5.9-1-8.9-1.1c0.1,0.3,0.2,0.6,0.3,0.9
				c2.9-1.6,5.8-2.9,8.9-4.1c-0.2-0.2-0.4-0.4-0.6-0.6c-1.2,3.1-2.5,6.3-3.8,9.3c0.3,0,0.6,0.1,0.9,0.1c-0.9-2.9-1.5-5.9-1.8-9
				C-316.3,315.5-317.3,315.5-317.3,316.1L-317.3,316.1z"/>
		</g>
	</g>
	<g class="st1">
		<g>
			<path d="M-406.5,248.2c1.6,2.9,3.2,5.7,4.8,8.6c0.2,0.4,0.8,0.3,0.9-0.1c1-3.4,1.9-6.8,2.8-10.2c0.1-0.4-0.4-0.8-0.7-0.6
				c-3.7,2.5-7.3,5-11,7.5c-0.4,0.3-0.3,0.9,0.3,0.9c3.8,0,7.5-0.4,11.1-1.2c0.4-0.1,0.5-0.7,0.1-0.9c-2.8-1.4-5.5-3-7.9-5
				c-0.5-0.4-1.2,0.3-0.7,0.7c2.5,2,5.2,3.7,8.1,5.1c0-0.3,0.1-0.6,0.1-0.9c-3.6,0.8-7.2,1.2-10.9,1.2c0.1,0.3,0.2,0.6,0.3,0.9
				c3.7-2.5,7.3-5,11-7.5c-0.2-0.2-0.5-0.4-0.7-0.6c-0.9,3.4-1.9,6.8-2.8,10.2c0.3,0,0.6-0.1,0.9-0.1c-1.6-2.9-3.2-5.7-4.8-8.6
				C-406,247.2-406.8,247.7-406.5,248.2L-406.5,248.2z"/>
		</g>
	</g>
	<g class="st1">
		<g>
			<path d="M-317.4,185.4c0.4,2.1,1.1,4.2,2,6.1c0.2,0.3,0.7,0.3,0.9,0c1.3-2.4,2.6-4.8,3.9-7.2c0.2-0.3,0-0.8-0.4-0.8
				c-3.1,0.4-5.9,1.4-8.6,2.9c-0.4,0.2-0.3,0.8,0.1,0.9c2.6,0.8,5.2,1.8,7.8,2.8c0.4,0.2,0.8-0.4,0.6-0.7c-1.8-3-3.3-6.2-4.6-9.4
				c-0.2-0.4-0.8-0.5-1,0c-0.5,1.7-0.6,3.4-0.4,5.2c0.1,0.6,1.1,0.6,1,0c-0.2-1.7-0.1-3.2,0.3-4.9c-0.3,0-0.6,0-1,0
				c1.3,3.3,2.9,6.5,4.7,9.6c0.2-0.2,0.4-0.5,0.6-0.7c-2.6-1-5.2-2-7.8-2.8c0,0.3,0.1,0.6,0.1,0.9c2.5-1.4,5.2-2.4,8.1-2.8
				c-0.1-0.3-0.3-0.5-0.4-0.8c-1.3,2.4-2.6,4.8-3.9,7.2c0.3,0,0.6,0,0.9,0c-0.9-1.9-1.5-3.8-1.9-5.9
				C-316.6,184.5-317.6,184.8-317.4,185.4L-317.4,185.4z"/>
		</g>
	</g>
	<g class="st1">
		<g>
			<path d="M-251.7,301.8c1.4,2.5,2.7,5.1,4.1,7.6c0.2,0.4,0.8,0.3,0.9-0.1c1-3.6,1.9-7.1,2.5-10.8c0.1-0.4-0.3-0.8-0.7-0.6
				c-3.4,1.9-6.7,3.9-9.9,6.2c-0.4,0.3-0.3,0.9,0.3,0.9c3.6-0.1,7.3-0.1,10.9-0.2c0.6,0,0.7-0.8,0.1-1c-3-0.9-5.9-1.8-8.8-2.8
				c-0.6-0.2-0.9,0.8-0.3,1c2.9,1,5.9,1.9,8.8,2.8c0-0.3,0.1-0.7,0.1-1c-3.6,0.1-7.3,0.1-10.9,0.2c0.1,0.3,0.2,0.6,0.3,0.9
				c3.2-2.3,6.5-4.2,9.9-6.2c-0.2-0.2-0.5-0.4-0.7-0.6c-0.7,3.6-1.5,7.2-2.5,10.8c0.3,0,0.6-0.1,0.9-0.1c-1.4-2.5-2.7-5.1-4.1-7.6
				C-251.2,300.7-252,301.2-251.7,301.8L-251.7,301.8z"/>
		</g>
	</g>
</g>
<g id="type">
</g>
<g id="filled_stars">
	<path d="M67.6,151.7c-0.3-0.3-0.7-0.7-1.1-1c0.1-1,0.3-1.9,0.4-2.8c0.1-0.3-0.3-0.5-0.5-0.2c-0.4,0.7-1,1.3-1.4,1.8
		c-0.4-0.3-0.9-0.6-1.3-0.9c-0.1-0.1-0.3,0-0.4,0.1c-0.3,0.7,0.1,1.4,0.4,2c-0.6,0.5-1.2,0.9-1.9,1.3c-0.2,0.1-0.1,0.3-0.1,0.4
		c0.1,0.1,0.1,0.2,0.3,0.2c0.9,0,1.8,0,2.6-0.1c0.4,0.9,0.8,1.7,1.2,2.6c0.1,0.3,0.5,0.1,0.5-0.1c0-0.9,0-1.7,0.1-2.6
		c0.4-0.1,0.7-0.1,1.2-0.1C67.6,152.1,67.7,151.8,67.6,151.7z"/>
	<path d="M51.5,185.9c-0.5-0.1-1-0.1-1.4-0.2c0.1-0.7,0.3-1.3,0.5-2c0.1-0.3-0.3-0.5-0.5-0.4c-0.8,0.5-1.2,1.2-1.8,1.9
		c-0.1,0.1-0.2,0.2-0.3,0.3c-0.4-0.1-0.8-0.1-1.2-0.3c-0.1-0.1-0.1,0-0.2,0c-0.3,0-0.5,0.3-0.3,0.6s0.4,0.5,0.5,0.7
		c-0.5,0.3-1,0.7-1.4,1.1l0,0l0,0l-0.1,0.1c-0.3,0.3,0.1,0.7,0.4,0.5c0.7-0.3,1.3-0.5,2-0.7c0.4,1,0.7,1.9,1.2,2.8
		c0.1,0.3,0.6,0.3,0.7-0.1c0.1-1.1,0.1-2.2,0.3-3.3c0.5-0.1,1.1-0.2,1.6-0.3C51.8,186.5,51.8,185.9,51.5,185.9z"/>
	<path d="M6.2,198.1c-0.5-0.2-0.8-0.5-1.2-1c0.3-0.6,0.5-1.3,0.8-1.9c0.1-0.3-0.1-0.6-0.5-0.5c-0.5,0.3-1.2,0.5-1.7,0.8
		c-0.3-0.4-0.7-0.7-1.2-1c-0.1-0.1-0.2-0.1-0.3,0c-0.2-0.1-0.5,0.1-0.4,0.4c0.2,0.5,0.3,0.9,0.4,1.4c-0.7,0.3-1.3,0.7-2,1.2
		c-0.3,0.2-0.1,0.7,0.3,0.6c0.7-0.3,1.4-0.3,2-0.3c0.3,1,0.5,1.9,0.9,2.9c0.1,0.3,0.6,0.4,0.7,0c0.1-0.9,0.3-1.7,0.6-2.5
		c0.4,0.1,0.7,0.3,1.2,0.5C6.2,198.8,6.6,198.3,6.2,198.1z"/>
	<path d="M-52.9,151.1c-0.4-0.2-0.9-0.4-1.3-0.7c0.2-0.7,0.5-1.4,0.7-2c0.1-0.3-0.1-0.6-0.5-0.5c-0.3,0.1-0.4,0.3-0.7,0.5
		c-0.4,0.4-0.8,0.7-1.2,1.1c-1-0.5-2-1.1-2.9-1.8c-0.3-0.2-0.6,0.3-0.4,0.5c-0.1,0.1-0.1,0.2,0,0.3c0.5,0.8,0.9,1.6,1.4,2.4
		c-0.9,0.6-1.7,1.2-2.6,1.8c-0.3,0.3-0.1,0.8,0.3,0.6c1-0.5,2-0.8,2.9-1.2c0.4,0.7,0.8,1.4,1.2,2.2c0.1,0.2,0.6,0.2,0.6-0.1
		c0.1-0.9,0.3-1.8,0.5-2.6c0.5-0.1,1-0.1,1.6-0.1C-52.8,151.7-52.7,151.2-52.9,151.1z"/>
	<path d="M-37,118.4c-0.5-0.1-1.1-0.2-1.6-0.3c0.1-0.6,0.2-1.4-0.1-1.8c-0.1-0.1-0.1-0.2-0.3-0.1c-0.7,0.1-1.2,0.9-1.6,1.5
		c-0.5-0.1-1.2-0.3-1.7-0.5c-0.2-0.1-0.3,0.1-0.4,0.3c-0.1,0.1-0.3,0.3-0.1,0.5c0.3,0.4,0.7,0.9,1,1.4c-0.5,0.6-1,1.2-1.4,1.8
		c-0.3,0.3,0.1,0.7,0.4,0.5c0.6-0.3,1.3-0.6,1.9-0.9c0.5,0.8,0.9,1.6,1.2,2.4c0.1,0.3,0.6,0.1,0.6-0.2c0.1-1.1,0.2-2.1,0.3-3.2
		c0.6-0.3,1.3-0.5,1.9-0.7C-36.5,119-36.7,118.5-37,118.4z"/>
	<path d="M6.6,105.7c-0.7-0.1-1.3-0.1-2-0.1c0-0.3,0.1-0.7,0.1-1c0-0.2-0.2-0.4-0.4-0.3c-0.7,0.3-1.3,0.7-1.8,1.2
		c-0.1,0-0.5-0.5-0.6-0.5l0,0c-0.1-0.4-0.8-0.2-0.7,0.2v-0.1c0,0.1,0,0.2,0.1,0.3c0.1,0.1,0.4,0.7,0.5,0.8c-0.5,0.7-1.1,1.4-1.7,2
		c-0.3,0.3,0.1,0.7,0.4,0.5c0.6-0.3,1.2-0.6,1.9-0.9c0.3,1,0.7,2,1.1,2.9c0.1,0.3,0.6,0.3,0.7-0.1c0.1-1.2,0.2-2.4,0.3-3.7
		c0.7-0.3,1.4-0.5,2.1-0.7C6.9,106.3,6.9,105.8,6.6,105.7z"/>
</g>
<g id="white_logo" class="st0">
	<rect x="-362.7" y="226.3" class="st7" width="95" height="63.8"/>
	<rect x="-343.1" y="210.7" class="st7" width="95" height="63.8"/>
	<line class="st7" x1="-362.7" y1="226.3" x2="-343.1" y2="210.7"/>
	<line class="st7" x1="-249.1" y1="210.7" x2="-267.7" y2="226.3"/>
	<polyline class="st7" points="-248.3,274.9 -267,290 -362.7,290 -343.1,274.5 	"/>
	<rect x="-248.1" y="180.5" class="st8" width="95.8" height="21.7"/>
	
		<text transform="matrix(1 0 0 1 -248.0694 187.1183)" class="st11" style="font-family:'NotCourierSans'; font-size:11px; letter-spacing:11;">amand</text>
	<text transform="matrix(1 0 0 1 -158.8694 187.1183)" class="st11" style="font-family:'NotCourierSans'; font-size:11px;">a</text>
	
		<text transform="matrix(1 0 0 1 -248.0694 200.3183)" class="st11" style="font-family:'NotCourierSans'; font-size:11px; letter-spacing:3;">anderso</text>
	<text transform="matrix(1 0 0 1 -158.8694 200.3183)" class="st11" style="font-family:'NotCourierSans'; font-size:11px;">n</text>
	<path class="st11" d="M-220.6,253.3c-0.6-0.6-1.3-1.2-2-1.8c0.2-1.6,0.4-3.3,0.8-4.9c0.1-0.6-0.6-0.9-0.9-0.4
		c-0.8,1.1-1.6,2.2-2.5,3.2c-0.7-0.5-1.5-1.1-2.3-1.6c-0.2-0.1-0.6-0.1-0.7,0.2c-0.5,1.2,0.2,2.3,0.7,3.4c-1,0.8-2.2,1.6-3.4,2.2
		c-0.3,0.2-0.3,0.5-0.1,0.7c0.1,0.2,0.2,0.3,0.5,0.3c1.5,0,3,0,4.6-0.1c0.7,1.5,1.4,3,2.2,4.5c0.2,0.4,0.9,0.2,0.9-0.3
		c0-1.5,0-3,0.1-4.5c0.7-0.1,1.3-0.1,2-0.2C-220.5,254.1-220.4,253.5-220.6,253.3z"/>
	<path class="st11" d="M-244.1,302.5c-0.7-0.2-1.4-0.2-2.1-0.3c0.2-1,0.4-1.9,0.8-2.9c0.1-0.4-0.4-0.8-0.7-0.6
		c-1.2,0.7-1.8,1.8-2.7,2.8c-0.2,0.2-0.3,0.3-0.5,0.4c-0.6-0.1-1.2-0.2-1.8-0.5c-0.1-0.1-0.2,0-0.3,0c-0.4,0-0.7,0.5-0.4,0.9
		c0.3,0.4,0.6,0.7,0.8,1.1c-0.7,0.5-1.4,1-2,1.6l0,0l0,0l-0.1,0.1c-0.5,0.4,0.1,1,0.6,0.8c1-0.4,1.9-0.8,2.9-1.1
		c0.6,1.4,1.1,2.8,1.7,4.1c0.2,0.5,0.9,0.5,1-0.1c0.1-1.6,0.2-3.3,0.5-4.9c0.8-0.2,1.6-0.3,2.4-0.4
		C-243.6,303.4-243.7,302.6-244.1,302.5z"/>
	<path class="st11" d="M-310.9,320.5c-0.7-0.3-1.2-0.8-1.7-1.4c0.4-0.9,0.8-1.9,1.2-2.8c0.2-0.5-0.2-0.9-0.7-0.7
		c-0.8,0.4-1.7,0.8-2.5,1.2c-0.5-0.6-1.1-1.1-1.8-1.4c-0.2-0.1-0.3-0.1-0.4,0c-0.3-0.1-0.8,0.2-0.6,0.6c0.3,0.7,0.5,1.3,0.6,2
		c-1,0.5-1.9,1.1-2.9,1.7c-0.5,0.3-0.2,1.1,0.4,0.9c1-0.4,2-0.5,3-0.5c0.4,1.4,0.7,2.8,1.3,4.2c0.2,0.4,0.9,0.6,1,0
		c0.2-1.3,0.5-2.5,0.9-3.7c0.6,0.2,1.1,0.5,1.7,0.8C-310.9,321.6-310.4,320.8-310.9,320.5z"/>
	<path class="st11" d="M-397.9,251.3c-0.6-0.3-1.3-0.6-1.9-1c0.3-1,0.7-2,1.1-3c0.2-0.5-0.2-0.9-0.7-0.7s-0.6,0.4-1,0.8
		c-0.6,0.6-1.2,1.1-1.8,1.6c-1.5-0.8-2.9-1.6-4.3-2.6c-0.5-0.3-0.9,0.4-0.6,0.8c-0.1,0.1-0.1,0.3,0,0.4c0.7,1.2,1.3,2.3,2,3.5
		c-1.3,0.9-2.5,1.8-3.8,2.7c-0.5,0.4-0.1,1.2,0.5,0.9c1.4-0.7,2.9-1.2,4.3-1.7c0.6,1.1,1.2,2.1,1.8,3.2c0.2,0.3,0.9,0.3,0.9-0.1
		c0.2-1.3,0.5-2.6,0.8-3.8c0.8-0.1,1.5-0.2,2.3-0.2C-397.7,252.2-397.4,251.5-397.9,251.3z"/>
	<path class="st11" d="M-374.4,203.2c-0.8-0.1-1.6-0.3-2.4-0.4c0.1-0.9,0.3-2-0.2-2.7c-0.1-0.1-0.2-0.3-0.4-0.2
		c-1.1,0.1-1.7,1.3-2.3,2.2c-0.8-0.2-1.7-0.5-2.5-0.8c-0.3-0.1-0.5,0.1-0.6,0.4c-0.2,0.2-0.4,0.5-0.2,0.8c0.5,0.6,1,1.3,1.4,2
		c-0.7,0.9-1.4,1.8-2.1,2.7c-0.4,0.4,0.1,1,0.6,0.8c0.9-0.4,1.9-0.9,2.8-1.3c0.7,1.2,1.3,2.4,1.8,3.6c0.2,0.5,0.9,0.2,0.9-0.3
		c0.2-1.6,0.3-3.1,0.5-4.7c0.9-0.4,1.9-0.7,2.8-1C-373.7,204-373.8,203.3-374.4,203.2z"/>
	<path class="st11" d="M-310.4,184.5c-1-0.2-1.9-0.2-2.9-0.2c0-0.5,0.1-1,0.1-1.5c0-0.3-0.3-0.6-0.6-0.5c-1,0.4-1.9,1-2.6,1.7
		c-0.1,0-0.8-0.8-0.9-0.8l0,0c-0.2-0.6-1.2-0.3-1,0.3v0.1c0,0.1,0,0.3,0.1,0.4c0.1,0.2,0.6,1,0.7,1.2c-0.8,1-1.6,2.1-2.5,3
		c-0.4,0.4,0.1,1,0.6,0.8c0.9-0.5,1.8-0.9,2.8-1.3c0.5,1.4,1,2.9,1.6,4.3c0.2,0.5,0.9,0.4,1-0.1c0.2-1.8,0.3-3.6,0.5-5.4
		c1-0.4,2-0.7,3.1-1C-310,185.3-309.9,184.6-310.4,184.5z"/>
</g>
</svg>
