<?xml version="1.0" encoding="utf-8"?>
<!-- Generator: Adobe Illustrator 18.1.1, SVG Export Plug-In . SVG Version: 6.00 Build 0)  -->
<svg version="1.1" id="Layer_1" xmlns="http://www.w3.org/2000/svg" xmlns:xlink="http://www.w3.org/1999/xlink" x="0px" y="0px"
	 viewBox="0 0 612 792" enable-background="new 0 0 612 792" xml:space="preserve">
<rect x="278.7" y="382.6" fill="none" stroke="#58595B" stroke-width="2" stroke-linecap="round" stroke-linejoin="round" stroke-miterlimit="10" width="47.2" height="31.6"/>
<rect x="288.4" y="374.9" fill="none" stroke="#58595B" stroke-width="2" stroke-linecap="round" stroke-linejoin="round" stroke-miterlimit="10" width="47.2" height="31.6"/>
<line fill="none" stroke="#58595B" stroke-width="2" stroke-linecap="round" stroke-linejoin="round" stroke-miterlimit="10" x1="278.7" y1="382.6" x2="288.4" y2="374.9"/>
<line fill="none" stroke="#58595B" stroke-width="2" stroke-linecap="round" stroke-linejoin="round" stroke-miterlimit="10" x1="335.1" y1="374.9" x2="325.9" y2="382.6"/>
<polyline fill="none" stroke="#58595B" stroke-width="2" stroke-linecap="round" stroke-linejoin="round" stroke-miterlimit="10" points="
	335.6,406.8 326.3,414.2 278.7,414.2 288.4,406.5 "/>
<path fill="#58595B" d="M349.3,395.4c-0.2-0.2-0.6-0.5-0.8-0.7c0.1-0.7,0.2-1.3,0.3-2.1c0.1-0.2-0.2-0.4-0.4-0.2
	c-0.3,0.5-0.7,0.9-1,1.3c-0.3-0.2-0.6-0.4-1-0.7c-0.1-0.1-0.2,0-0.3,0.1c-0.2,0.5,0.1,1,0.3,1.4c-0.4,0.4-0.9,0.7-1.4,0.9
	c-0.1,0.1-0.1,0.2-0.1,0.3c0,0.1,0.1,0.1,0.2,0.1c0.6,0,1.3,0,1.9,0c0.3,0.6,0.6,1.2,0.9,1.9c0.1,0.2,0.4,0.1,0.4-0.1
	c0-0.6,0-1.2,0.1-1.9c0.2,0,0.6-0.1,0.8-0.1C349.4,395.8,349.4,395.5,349.3,395.4z"/>
<path fill="#58595B" d="M337.6,420.4c-0.4-0.1-0.7-0.1-1-0.1c0.1-0.5,0.2-1,0.4-1.5c0.1-0.2-0.2-0.4-0.4-0.3
	c-0.6,0.3-0.9,0.9-1.3,1.4c-0.1,0.1-0.2,0.1-0.2,0.2c-0.3-0.1-0.6-0.1-0.9-0.2c-0.1,0-0.1,0-0.2,0c-0.2,0-0.4,0.2-0.2,0.4
	c0.1,0.2,0.3,0.4,0.4,0.6c-0.3,0.2-0.7,0.5-1,0.8l0,0l0,0c0,0-0.1,0-0.1,0.1c-0.2,0.2,0.1,0.5,0.3,0.4c0.5-0.2,1-0.4,1.5-0.6
	c0.3,0.7,0.6,1.3,0.9,2.1c0.1,0.2,0.5,0.2,0.5-0.1c0.1-0.8,0.1-1.6,0.2-2.4c0.4-0.1,0.8-0.2,1.2-0.2
	C337.9,420.9,337.8,420.5,337.6,420.4z"/>
<path fill="#58595B" d="M304.4,429.4c-0.3-0.2-0.6-0.4-0.9-0.7c0.2-0.5,0.4-0.9,0.6-1.4c0.1-0.2-0.1-0.4-0.4-0.4
	c-0.4,0.2-0.8,0.4-1.2,0.6c-0.2-0.3-0.6-0.6-0.9-0.7c-0.1-0.1-0.2,0-0.2,0c-0.2-0.1-0.4,0.1-0.3,0.3c0.1,0.3,0.2,0.7,0.3,1
	c-0.5,0.2-1,0.6-1.4,0.9c-0.2,0.1-0.1,0.6,0.2,0.4c0.5-0.2,1-0.2,1.5-0.2c0.2,0.7,0.4,1.4,0.6,2.1c0.1,0.2,0.4,0.2,0.5,0
	c0.1-0.6,0.2-1.2,0.4-1.8c0.3,0.1,0.6,0.2,0.9,0.4C304.5,430,304.7,429.5,304.4,429.4z"/>
<path fill="#58595B" d="M261.3,395c-0.3-0.2-0.6-0.3-1-0.5c0.2-0.5,0.4-1,0.6-1.5c0.1-0.2-0.1-0.4-0.4-0.4c-0.2,0.1-0.3,0.2-0.5,0.4
	c-0.3,0.3-0.6,0.6-0.9,0.8c-0.7-0.4-1.5-0.8-2.1-1.3c-0.2-0.2-0.5,0.2-0.3,0.4c0,0.1,0,0.1,0,0.2c0.3,0.6,0.7,1.2,1,1.8
	c-0.6,0.4-1.2,0.9-1.9,1.3c-0.2,0.2-0.1,0.6,0.2,0.4c0.7-0.4,1.4-0.6,2.1-0.9c0.3,0.6,0.6,1,0.9,1.6c0.1,0.2,0.4,0.2,0.4-0.1
	c0.1-0.7,0.2-1.3,0.4-1.9c0.4-0.1,0.8-0.1,1.2-0.1C261.4,395.4,261.5,395.1,261.3,395z"/>
<path fill="#58595B" d="M272.9,371.2c-0.4-0.1-0.8-0.1-1.2-0.2c0.1-0.5,0.1-1-0.1-1.3c-0.1-0.1-0.1-0.1-0.2-0.1
	c-0.6,0.1-0.9,0.7-1.2,1.1c-0.4-0.1-0.9-0.2-1.2-0.4c-0.2-0.1-0.2,0.1-0.3,0.2c-0.1,0.1-0.2,0.2-0.1,0.4c0.2,0.3,0.5,0.6,0.7,1
	c-0.4,0.4-0.7,0.9-1,1.3c-0.2,0.2,0.1,0.5,0.3,0.4c0.5-0.2,0.9-0.4,1.4-0.6c0.3,0.6,0.6,1.2,0.9,1.8c0.1,0.2,0.4,0.1,0.5-0.1
	c0.1-0.8,0.2-1.5,0.2-2.3c0.5-0.2,0.9-0.4,1.4-0.5C273.3,371.5,273.2,371.2,272.9,371.2z"/>
<path fill="#58595B" d="M304.7,361.9c-0.5-0.1-1-0.1-1.4-0.1c0-0.2,0.1-0.5,0.1-0.7c0-0.2-0.2-0.3-0.3-0.2c-0.5,0.2-0.9,0.5-1.3,0.9
	c-0.1,0-0.4-0.4-0.4-0.4l0,0c-0.1-0.3-0.6-0.2-0.5,0.1c0,0,0,0,0,0.1c0,0.1,0,0.1,0.1,0.2c0.1,0.1,0.3,0.5,0.3,0.6
	c-0.4,0.5-0.8,1-1.2,1.5c-0.2,0.2,0.1,0.5,0.3,0.4c0.4-0.2,0.9-0.4,1.3-0.6c0.2,0.7,0.5,1.4,0.8,2.1c0.1,0.2,0.5,0.2,0.5-0.1
	c0.1-0.9,0.2-1.8,0.2-2.7c0.5-0.2,1-0.4,1.5-0.5C304.9,362.2,305,361.9,304.7,361.9z"/>
<rect x="118.7" y="388.7" fill="none" width="105.3" height="19.8"/>
<g enable-background="new    ">
	<path fill="#58595B" d="M118.7,396.4l3-7.9h1.1l3.2,7.9h-1.2L124,394h-3.3l-0.9,2.4H118.7z M121,393.1h2.7l-0.8-2.2
		c-0.3-0.7-0.4-1.2-0.6-1.6c-0.1,0.5-0.2,1-0.4,1.5L121,393.1z"/>
	<path fill="#58595B" d="M138.5,396.4v-7.9h1.6l1.9,5.6c0.2,0.5,0.3,0.9,0.4,1.2c0.1-0.3,0.2-0.7,0.4-1.3l1.9-5.5h1.4v7.9h-1v-6.6
		l-2.3,6.6h-0.9l-2.3-6.7v6.7H138.5z"/>
	<path fill="#58595B" d="M158.5,396.4l3-7.9h1.1l3.2,7.9h-1.2l-0.9-2.4h-3.3l-0.9,2.4H158.5z M160.8,393.1h2.7l-0.8-2.2
		c-0.3-0.7-0.4-1.2-0.6-1.6c-0.1,0.5-0.2,1-0.4,1.5L160.8,393.1z"/>
	<path fill="#58595B" d="M178.3,396.4v-7.9h1.1l4.1,6.2v-6.2h1v7.9h-1.1l-4.1-6.2v6.2H178.3z"/>
	<path fill="#58595B" d="M197.9,396.4v-7.9h2.7c0.6,0,1.1,0,1.4,0.1c0.5,0.1,0.8,0.3,1.2,0.6c0.4,0.4,0.7,0.8,0.9,1.3
		c0.2,0.5,0.3,1.2,0.3,1.9c0,0.6-0.1,1.1-0.2,1.6c-0.1,0.5-0.3,0.8-0.5,1.1c-0.2,0.3-0.5,0.5-0.7,0.7c-0.3,0.2-0.6,0.3-0.9,0.4
		c-0.4,0.1-0.8,0.1-1.3,0.1H197.9z M198.9,395.4h1.7c0.5,0,0.9,0,1.2-0.1s0.5-0.2,0.7-0.4c0.2-0.2,0.4-0.6,0.6-1
		c0.1-0.4,0.2-0.9,0.2-1.5c0-0.8-0.1-1.5-0.4-1.9c-0.3-0.4-0.6-0.7-1-0.9c-0.3-0.1-0.7-0.2-1.4-0.2h-1.7V395.4z"/>
</g>
<g enable-background="new    ">
	<path fill="#58595B" d="M216.9,396.4l3-7.9h1.1l3.2,7.9h-1.2l-0.9-2.4h-3.3l-0.9,2.4H216.9z M219.2,393.1h2.7L221,391
		c-0.3-0.7-0.4-1.2-0.6-1.6c-0.1,0.5-0.2,1-0.4,1.5L219.2,393.1z"/>
</g>
<rect x="381.9" y="388.7" fill="none" width="105.3" height="19.8"/>
<g enable-background="new    ">
	<path fill="#58595B" d="M381.9,396.4l3-7.9h1.1l3.2,7.9h-1.2l-0.9-2.4h-3.3l-0.9,2.4H381.9z M384.1,393.1h2.7L386,391
		c-0.3-0.7-0.4-1.2-0.6-1.6c-0.1,0.5-0.2,1-0.4,1.5L384.1,393.1z"/>
	<path fill="#58595B" d="M396.8,396.4v-7.9h1.1l4.1,6.2v-6.2h1v7.9h-1.1l-4.1-6.2v6.2H396.8z"/>
	<path fill="#58595B" d="M411.5,396.4v-7.9h2.7c0.6,0,1.1,0,1.4,0.1c0.5,0.1,0.8,0.3,1.2,0.6c0.4,0.4,0.7,0.8,0.9,1.3
		s0.3,1.2,0.3,1.9c0,0.6-0.1,1.1-0.2,1.6s-0.3,0.8-0.5,1.1c-0.2,0.3-0.5,0.5-0.7,0.7c-0.3,0.2-0.6,0.3-0.9,0.4
		c-0.4,0.1-0.8,0.1-1.3,0.1H411.5z M412.5,395.4h1.7c0.5,0,0.9,0,1.2-0.1s0.5-0.2,0.7-0.4c0.2-0.2,0.4-0.6,0.6-1
		c0.1-0.4,0.2-0.9,0.2-1.5c0-0.8-0.1-1.5-0.4-1.9c-0.3-0.4-0.6-0.7-1-0.9c-0.3-0.1-0.7-0.2-1.4-0.2h-1.7V395.4z"/>
	<path fill="#58595B" d="M426.2,396.4v-7.9h5.7v0.9h-4.7v2.4h4.4v0.9h-4.4v2.7h4.8v0.9H426.2z"/>
	<path fill="#58595B" d="M440.3,396.4v-7.9h3.5c0.7,0,1.2,0.1,1.6,0.2c0.4,0.1,0.7,0.4,0.9,0.8c0.2,0.4,0.3,0.8,0.3,1.2
		c0,0.6-0.2,1-0.5,1.4s-0.9,0.6-1.7,0.7c0.3,0.1,0.5,0.3,0.6,0.4c0.3,0.3,0.6,0.6,0.9,1l1.4,2.1h-1.3l-1-1.6
		c-0.3-0.5-0.6-0.8-0.8-1.1c-0.2-0.3-0.4-0.4-0.5-0.5c-0.2-0.1-0.3-0.2-0.5-0.2c-0.1,0-0.3,0-0.6,0h-1.2v3.5H440.3z M441.3,392h2.2
		c0.5,0,0.8,0,1.1-0.1c0.3-0.1,0.5-0.3,0.6-0.5c0.1-0.2,0.2-0.5,0.2-0.7c0-0.4-0.1-0.7-0.4-0.9c-0.3-0.2-0.7-0.4-1.3-0.4h-2.5V392z"
		/>
	<path fill="#58595B" d="M454.6,393.8l1-0.1c0,0.4,0.2,0.7,0.3,1c0.2,0.3,0.4,0.5,0.8,0.6c0.4,0.2,0.8,0.2,1.2,0.2
		c0.4,0,0.7-0.1,1.1-0.2s0.5-0.3,0.7-0.5c0.1-0.2,0.2-0.4,0.2-0.7c0-0.2-0.1-0.5-0.2-0.6c-0.1-0.2-0.4-0.3-0.7-0.5
		c-0.2-0.1-0.7-0.2-1.4-0.4c-0.7-0.2-1.2-0.3-1.5-0.5c-0.4-0.2-0.7-0.4-0.8-0.7c-0.2-0.3-0.3-0.6-0.3-1c0-0.4,0.1-0.8,0.3-1.1
		c0.2-0.3,0.6-0.6,1-0.8c0.4-0.2,0.9-0.3,1.4-0.3c0.6,0,1.1,0.1,1.5,0.3c0.4,0.2,0.8,0.5,1,0.8c0.2,0.4,0.4,0.8,0.4,1.2l-1,0.1
		c-0.1-0.5-0.2-0.9-0.5-1.1c-0.3-0.3-0.8-0.4-1.4-0.4c-0.6,0-1.1,0.1-1.4,0.3c-0.3,0.2-0.4,0.5-0.4,0.8c0,0.3,0.1,0.5,0.3,0.7
		c0.2,0.2,0.7,0.4,1.6,0.6c0.8,0.2,1.4,0.4,1.7,0.5c0.5,0.2,0.8,0.5,1,0.8c0.2,0.3,0.3,0.7,0.3,1.1c0,0.4-0.1,0.8-0.4,1.2
		c-0.2,0.4-0.6,0.7-1,0.9s-1,0.3-1.5,0.3c-0.7,0-1.3-0.1-1.8-0.3c-0.5-0.2-0.9-0.5-1.1-0.9C454.8,394.8,454.6,394.4,454.6,393.8z"/>
	<path fill="#58595B" d="M468.7,392.5c0-1.3,0.4-2.3,1.1-3.1c0.7-0.7,1.6-1.1,2.7-1.1c0.7,0,1.4,0.2,2,0.5c0.6,0.3,1,0.8,1.3,1.5
		c0.3,0.6,0.5,1.3,0.5,2.1c0,0.8-0.2,1.5-0.5,2.1c-0.3,0.6-0.8,1.1-1.4,1.4s-1.2,0.5-1.9,0.5c-0.7,0-1.4-0.2-2-0.5
		c-0.6-0.4-1-0.8-1.3-1.5C468.9,393.9,468.7,393.2,468.7,392.5z M469.8,392.6c0,1,0.3,1.7,0.8,2.2s1.2,0.8,1.9,0.8
		c0.8,0,1.4-0.3,1.9-0.8c0.5-0.6,0.8-1.3,0.8-2.4c0-0.6-0.1-1.2-0.3-1.7c-0.2-0.5-0.5-0.9-1-1.1c-0.4-0.3-0.9-0.4-1.4-0.4
		c-0.7,0-1.4,0.3-1.9,0.8C470.1,390.5,469.8,391.4,469.8,392.6z"/>
</g>
<g enable-background="new    ">
	<path fill="#58595B" d="M480.2,396.4v-7.9h1.1l4.1,6.2v-6.2h1v7.9h-1.1l-4.1-6.2v6.2H480.2z"/>
</g>
</svg>
