<?xml version="1.0" encoding="utf-8"?>
<!-- Generator: Adobe Illustrator 18.1.1, SVG Export Plug-In . SVG Version: 6.00 Build 0)  -->
<svg version="1.1" id="Layer_1" xmlns="http://www.w3.org/2000/svg" xmlns:xlink="http://www.w3.org/1999/xlink" x="0px" y="0px"
	 viewBox="0 0 1200 200" enable-background="new 0 0 1200 200" xml:space="preserve">
<rect x="561.2" y="78.6" fill="none" stroke="#595A5C" stroke-width="2" stroke-linecap="round" stroke-linejoin="round" stroke-miterlimit="10" width="75.4" height="50.5"/>
<rect x="576.8" y="66.2" fill="none" stroke="#595A5C" stroke-width="2" stroke-linecap="round" stroke-linejoin="round" stroke-miterlimit="10" width="75.4" height="50.5"/>
<line fill="none" stroke="#595A5C" stroke-width="2" stroke-linecap="round" stroke-linejoin="round" stroke-miterlimit="10" x1="561.2" y1="78.6" x2="576.8" y2="66.2"/>
<line fill="none" stroke="#595A5C" stroke-width="2" stroke-linecap="round" stroke-linejoin="round" stroke-miterlimit="10" x1="651.4" y1="66.2" x2="636.6" y2="78.6"/>
<polyline fill="none" stroke="#595A5C" stroke-width="2" stroke-linecap="round" stroke-linejoin="round" stroke-miterlimit="10" points="
	652,117.2 637.2,129.1 561.2,129.1 576.8,116.8 "/>
<path fill="#595A5C" d="M674,99.1c-0.4-0.4-0.9-0.8-1.3-1.2c0.1-1.1,0.3-2.2,0.5-3.3c0.1-0.4-0.4-0.6-0.6-0.3
	c-0.5,0.8-1.1,1.5-1.7,2.2c-0.5-0.4-1-0.7-1.6-1.1c-0.1-0.1-0.4,0-0.5,0.1c-0.4,0.8,0.1,1.6,0.5,2.2c-0.7,0.6-1.5,1.1-2.2,1.5
	c-0.2,0.1-0.2,0.3-0.1,0.5c0,0.1,0.1,0.2,0.3,0.2c1,0,2.1,0,3,0c0.5,1,1,2,1.5,3c0.2,0.3,0.6,0.2,0.6-0.2c0-1,0-2,0.1-3
	c0.4,0,0.9-0.1,1.3-0.2C674.1,99.6,674.1,99.2,674,99.1z"/>
<path fill="#595A5C" d="M655.4,139c-0.6-0.1-1.1-0.2-1.7-0.2c0.2-0.8,0.4-1.6,0.6-2.3c0.1-0.3-0.3-0.6-0.6-0.5
	c-1,0.5-1.4,1.5-2.2,2.2c-0.1,0.1-0.3,0.2-0.4,0.4c-0.5-0.1-1-0.2-1.5-0.4c-0.1,0-0.2,0-0.3,0c-0.3,0-0.6,0.4-0.3,0.7
	c0.2,0.3,0.5,0.6,0.7,0.9c-0.5,0.4-1.1,0.8-1.6,1.3l0,0l0,0c0,0-0.1,0-0.1,0.1c-0.4,0.3,0.1,0.8,0.5,0.6c0.8-0.3,1.6-0.6,2.3-0.9
	c0.5,1.1,0.9,2.2,1.4,3.3c0.2,0.4,0.8,0.4,0.8-0.1c0.1-1.3,0.2-2.5,0.4-3.9c0.6-0.1,1.3-0.3,1.9-0.3
	C655.8,139.7,655.7,139.1,655.4,139z"/>
<path fill="#595A5C" d="M602.3,153.2c-0.5-0.3-1-0.7-1.4-1.1c0.3-0.8,0.6-1.5,1-2.2c0.2-0.4-0.2-0.7-0.6-0.6c-0.7,0.3-1.3,0.6-2,1
	c-0.4-0.5-0.9-0.9-1.5-1.1c-0.1-0.1-0.3,0-0.4,0c-0.3-0.1-0.6,0.1-0.5,0.5c0.2,0.5,0.4,1.1,0.5,1.6c-0.8,0.4-1.6,0.9-2.2,1.4
	c-0.4,0.2-0.1,0.9,0.3,0.7c0.8-0.3,1.6-0.4,2.3-0.4c0.3,1.1,0.6,2.2,1,3.3c0.1,0.3,0.7,0.4,0.8,0c0.2-1,0.4-2,0.7-2.9
	c0.5,0.2,0.9,0.4,1.4,0.6C602.4,154.2,602.8,153.5,602.3,153.2z"/>
<path fill="#595A5C" d="M533.4,98.4c-0.5-0.3-1-0.5-1.6-0.8c0.3-0.8,0.6-1.6,0.9-2.3c0.2-0.4-0.2-0.7-0.6-0.6
	c-0.4,0.2-0.5,0.4-0.8,0.7c-0.5,0.5-1,0.9-1.5,1.3c-1.2-0.6-2.3-1.3-3.4-2.1c-0.4-0.3-0.8,0.3-0.5,0.6c0,0.1,0,0.2,0,0.3
	c0.5,1,1.1,1.9,1.6,2.8c-1,0.7-2,1.5-3,2.2c-0.4,0.3-0.1,0.9,0.4,0.7c1.1-0.6,2.2-1,3.4-1.4c0.5,0.9,1,1.7,1.5,2.5
	c0.2,0.3,0.7,0.3,0.7-0.1c0.2-1.1,0.4-2.1,0.6-3c0.6-0.1,1.3-0.1,1.9-0.2C533.6,99.1,533.8,98.6,533.4,98.4z"/>
<path fill="#595A5C" d="M552,60.3c-0.7-0.1-1.3-0.2-2-0.3c0.1-0.8,0.2-1.6-0.2-2.2c-0.1-0.1-0.2-0.2-0.4-0.2
	c-0.9,0.1-1.4,1.1-1.9,1.8c-0.7-0.2-1.4-0.4-2-0.7c-0.3-0.1-0.4,0.1-0.5,0.3c-0.2,0.1-0.3,0.4-0.1,0.7c0.4,0.5,0.8,1,1.2,1.6
	c-0.6,0.7-1.1,1.4-1.7,2.2c-0.3,0.4,0.1,0.8,0.5,0.6c0.8-0.4,1.5-0.7,2.2-1c0.5,1,1,1.9,1.5,2.8c0.2,0.4,0.7,0.1,0.8-0.2
	c0.1-1.3,0.3-2.4,0.4-3.7c0.8-0.3,1.5-0.6,2.2-0.8C552.5,60.9,552.4,60.3,552,60.3z"/>
<path fill="#595A5C" d="M602.8,45.4c-0.8-0.1-1.6-0.2-2.2-0.2c0-0.4,0.1-0.8,0.1-1.2c0-0.3-0.3-0.5-0.5-0.4
	c-0.8,0.3-1.5,0.8-2.1,1.4c-0.1,0-0.6-0.6-0.7-0.7l0,0c-0.2-0.5-1-0.3-0.8,0.2c0,0,0,0,0,0.1c0,0.1,0,0.2,0.1,0.3
	c0.1,0.1,0.5,0.8,0.5,1c-0.7,0.8-1.3,1.7-2,2.3c-0.3,0.3,0.1,0.8,0.5,0.6c0.7-0.4,1.5-0.7,2.2-1c0.4,1.2,0.8,2.2,1.3,3.4
	c0.2,0.4,0.8,0.4,0.8-0.1c0.1-1.5,0.3-2.8,0.4-4.3c0.8-0.3,1.7-0.6,2.4-0.8C603.1,46,603.2,45.4,602.8,45.4z"/>
<rect x="305.7" y="88.2" fill="none" width="168.1" height="31.7"/>
<g enable-background="new    ">
	<path fill="#595A5C" d="M305.7,100.6l4.8-12.6h1.8l5.2,12.6h-1.9l-1.5-3.8h-5.3l-1.4,3.8H305.7z M309.3,95.4h4.3l-1.3-3.5
		c-0.4-1.1-0.7-1.9-0.9-2.6c-0.2,0.8-0.4,1.6-0.7,2.4L309.3,95.4z"/>
	<path fill="#595A5C" d="M337.3,100.6V88h2.5l3,8.9c0.3,0.8,0.5,1.5,0.6,1.9c0.1-0.5,0.4-1.1,0.7-2l3-8.8h2.2v12.6h-1.6V90
		l-3.7,10.5h-1.5l-3.6-10.7v10.7H337.3z"/>
	<path fill="#595A5C" d="M369.2,100.6l4.8-12.6h1.8l5.2,12.6h-1.9l-1.5-3.8h-5.3l-1.4,3.8H369.2z M372.9,95.4h4.3l-1.3-3.5
		c-0.4-1.1-0.7-1.9-0.9-2.6c-0.2,0.8-0.4,1.6-0.7,2.4L372.9,95.4z"/>
	<path fill="#595A5C" d="M400.9,100.6V88h1.7l6.6,9.9V88h1.6v12.6h-1.7l-6.6-9.9v9.9H400.9z"/>
	<path fill="#595A5C" d="M432.2,100.6V88h4.3c1,0,1.7,0.1,2.2,0.2c0.7,0.2,1.3,0.5,1.8,0.9c0.7,0.6,1.2,1.3,1.5,2.2
		c0.3,0.9,0.5,1.9,0.5,3c0,1-0.1,1.8-0.3,2.5c-0.2,0.7-0.5,1.3-0.9,1.8c-0.3,0.5-0.7,0.9-1.1,1.1c-0.4,0.3-0.9,0.5-1.5,0.6
		c-0.6,0.1-1.3,0.2-2,0.2H432.2z M433.8,99.1h2.7c0.8,0,1.5-0.1,2-0.2c0.5-0.2,0.8-0.4,1.1-0.7c0.4-0.4,0.7-0.9,0.9-1.6
		c0.2-0.7,0.3-1.5,0.3-2.4c0-1.3-0.2-2.3-0.6-3c-0.4-0.7-1-1.2-1.6-1.4c-0.4-0.2-1.2-0.3-2.2-0.3h-2.6V99.1z"/>
</g>
<g enable-background="new    ">
	<path fill="#595A5C" d="M462.5,100.6l4.8-12.6h1.8l5.2,12.6h-1.9l-1.5-3.8h-5.3l-1.4,3.8H462.5z M466.1,95.4h4.3l-1.3-3.5
		c-0.4-1.1-0.7-1.9-0.9-2.6c-0.2,0.8-0.4,1.6-0.7,2.4L466.1,95.4z"/>
</g>
<rect x="726" y="88.2" fill="none" width="168.1" height="31.7"/>
<g enable-background="new    ">
	<path fill="#595A5C" d="M726,100.6l4.8-12.6h1.8l5.2,12.6h-1.9l-1.5-3.8h-5.3l-1.4,3.8H726z M729.6,95.4h4.3l-1.3-3.5
		c-0.4-1.1-0.7-1.9-0.9-2.6c-0.2,0.8-0.4,1.6-0.7,2.4L729.6,95.4z"/>
	<path fill="#595A5C" d="M749.9,100.6V88h1.7l6.6,9.9V88h1.6v12.6h-1.7l-6.6-9.9v9.9H749.9z"/>
	<path fill="#595A5C" d="M773.3,100.6V88h4.3c1,0,1.7,0.1,2.2,0.2c0.7,0.2,1.3,0.5,1.8,0.9c0.7,0.6,1.2,1.3,1.5,2.2s0.5,1.9,0.5,3
		c0,1-0.1,1.8-0.3,2.5c-0.2,0.7-0.5,1.3-0.9,1.8c-0.3,0.5-0.7,0.9-1.1,1.1c-0.4,0.3-0.9,0.5-1.5,0.6c-0.6,0.1-1.3,0.2-2,0.2H773.3z
		 M775,99.1h2.7c0.8,0,1.5-0.1,2-0.2c0.5-0.2,0.8-0.4,1.1-0.7c0.4-0.4,0.7-0.9,0.9-1.6c0.2-0.7,0.3-1.5,0.3-2.4c0-1.3-0.2-2.3-0.6-3
		c-0.4-0.7-1-1.2-1.6-1.4c-0.4-0.2-1.2-0.3-2.2-0.3H775V99.1z"/>
	<path fill="#595A5C" d="M796.8,100.6V88h9.1v1.5h-7.4v3.9h7v1.5h-7v4.3h7.7v1.5H796.8z"/>
	<path fill="#595A5C" d="M819.3,100.6V88h5.6c1.1,0,2,0.1,2.6,0.3c0.6,0.2,1.1,0.6,1.4,1.2c0.3,0.6,0.5,1.2,0.5,1.9
		c0,0.9-0.3,1.6-0.9,2.3c-0.6,0.6-1.5,1-2.7,1.2c0.4,0.2,0.8,0.4,1,0.6c0.5,0.4,0.9,1,1.4,1.7l2.2,3.4h-2.1l-1.7-2.6
		c-0.5-0.8-0.9-1.3-1.2-1.7c-0.3-0.4-0.6-0.7-0.8-0.8c-0.2-0.2-0.5-0.3-0.8-0.3c-0.2,0-0.5-0.1-0.9-0.1H821v5.6H819.3z M821,93.5
		h3.6c0.8,0,1.4-0.1,1.8-0.2c0.4-0.2,0.8-0.4,1-0.8c0.2-0.3,0.3-0.7,0.3-1.1c0-0.6-0.2-1.1-0.6-1.5c-0.4-0.4-1.1-0.6-2-0.6h-4V93.5z
		"/>
	<path fill="#595A5C" d="M842.2,96.5l1.6-0.1c0.1,0.6,0.2,1.1,0.5,1.6c0.3,0.4,0.7,0.7,1.3,1c0.6,0.2,1.2,0.4,1.9,0.4
		c0.6,0,1.2-0.1,1.7-0.3s0.9-0.4,1.1-0.8c0.2-0.3,0.4-0.7,0.4-1.1c0-0.4-0.1-0.7-0.3-1c-0.2-0.3-0.6-0.5-1.1-0.7
		c-0.3-0.1-1.1-0.3-2.2-0.6c-1.2-0.3-2-0.5-2.4-0.8c-0.6-0.3-1-0.7-1.3-1.2c-0.3-0.5-0.4-1-0.4-1.6c0-0.6,0.2-1.2,0.5-1.8
		c0.4-0.6,0.9-1,1.6-1.3c0.7-0.3,1.5-0.4,2.3-0.4c0.9,0,1.8,0.2,2.5,0.5c0.7,0.3,1.3,0.7,1.6,1.3c0.4,0.6,0.6,1.2,0.6,2l-1.6,0.1
		c-0.1-0.8-0.4-1.4-0.9-1.8c-0.5-0.4-1.2-0.6-2.2-0.6c-1,0-1.7,0.2-2.2,0.6c-0.5,0.4-0.7,0.8-0.7,1.3c0,0.5,0.2,0.8,0.5,1.1
		c0.3,0.3,1.2,0.6,2.5,0.9c1.4,0.3,2.3,0.6,2.8,0.8c0.7,0.3,1.3,0.8,1.6,1.3c0.3,0.5,0.5,1.1,0.5,1.8c0,0.7-0.2,1.3-0.6,1.9
		c-0.4,0.6-0.9,1.1-1.7,1.4c-0.7,0.3-1.5,0.5-2.4,0.5c-1.1,0-2.1-0.2-2.9-0.5c-0.8-0.3-1.4-0.8-1.8-1.5
		C842.4,98.1,842.2,97.4,842.2,96.5z"/>
	<path fill="#595A5C" d="M864.7,94.4c0-2.1,0.6-3.7,1.7-4.9c1.1-1.2,2.6-1.8,4.3-1.8c1.2,0,2.2,0.3,3.1,0.8c0.9,0.6,1.6,1.3,2.1,2.3
		c0.5,1,0.7,2.1,0.7,3.4c0,1.3-0.3,2.4-0.8,3.4c-0.5,1-1.2,1.8-2.2,2.3c-0.9,0.5-2,0.8-3.1,0.8c-1.2,0-2.2-0.3-3.2-0.9
		c-0.9-0.6-1.6-1.4-2.1-2.3C864.9,96.6,864.7,95.5,864.7,94.4z M866.4,94.5c0,1.5,0.4,2.7,1.2,3.6c0.8,0.9,1.8,1.3,3.1,1.3
		c1.3,0,2.3-0.4,3.1-1.3c0.8-0.9,1.2-2.1,1.2-3.8c0-1-0.2-1.9-0.5-2.7c-0.3-0.8-0.9-1.4-1.5-1.8c-0.7-0.4-1.4-0.6-2.2-0.6
		c-1.2,0-2.2,0.4-3,1.2C866.8,91.2,866.4,92.6,866.4,94.5z"/>
</g>
<g enable-background="new    ">
	<path fill="#595A5C" d="M883,100.6V88h1.7l6.6,9.9V88h1.6v12.6h-1.7l-6.6-9.9v9.9H883z"/>
</g>
</svg>
