<?xml version="1.0" encoding="utf-8"?>
<!-- Generator: Adobe Illustrator 18.1.1, SVG Export Plug-In . SVG Version: 6.00 Build 0)  -->
<svg version="1.1" id="Layer_1" xmlns="http://www.w3.org/2000/svg" xmlns:xlink="http://www.w3.org/1999/xlink" x="0px" y="0px"
	 viewBox="0 0 1000 200" enable-background="new 0 0 1000 200" xml:space="preserve">
<rect x="455.4" y="78.1" fill="none" stroke="#58595B" stroke-width="2" stroke-linecap="round" stroke-linejoin="round" stroke-miterlimit="10" width="77.1" height="51.7"/>
<rect x="471.3" y="65.5" fill="none" stroke="#58595B" stroke-width="2" stroke-linecap="round" stroke-linejoin="round" stroke-miterlimit="10" width="77.1" height="51.7"/>
<line fill="none" stroke="#58595B" stroke-width="2" stroke-linecap="round" stroke-linejoin="round" stroke-miterlimit="10" x1="455.4" y1="78.1" x2="471.3" y2="65.5"/>
<line fill="none" stroke="#58595B" stroke-width="2" stroke-linecap="round" stroke-linejoin="round" stroke-miterlimit="10" x1="547.6" y1="65.5" x2="532.5" y2="78.1"/>
<polyline fill="none" stroke="#58595B" stroke-width="2" stroke-linecap="round" stroke-linejoin="round" stroke-miterlimit="10" points="
	548.3,117.6 533.1,129.8 455.4,129.8 471.3,117.2 "/>
<path fill="#58595B" d="M570.8,99.1c-0.4-0.4-0.9-0.8-1.3-1.2c0.1-1.1,0.3-2.2,0.5-3.4c0.1-0.4-0.4-0.6-0.6-0.3
	c-0.5,0.8-1.1,1.5-1.7,2.2c-0.5-0.4-1-0.7-1.6-1.1c-0.1-0.1-0.4,0-0.5,0.1c-0.4,0.8,0.1,1.6,0.5,2.3c-0.7,0.6-1.5,1.1-2.3,1.5
	c-0.2,0.1-0.2,0.3-0.1,0.5c0,0.1,0.1,0.2,0.3,0.2c1,0,2.1,0,3.1,0c0.5,1,1,2,1.5,3.1c0.2,0.3,0.6,0.2,0.6-0.2c0-1,0-2,0.1-3.1
	c0.4,0,0.9-0.1,1.3-0.2C570.9,99.6,570.9,99.2,570.8,99.1z"/>
<path fill="#58595B" d="M551.7,139.9c-0.6-0.1-1.1-0.2-1.7-0.2c0.2-0.8,0.4-1.6,0.6-2.4c0.1-0.3-0.3-0.6-0.6-0.5
	c-1,0.5-1.4,1.5-2.2,2.3c-0.1,0.1-0.3,0.2-0.4,0.4c-0.5-0.1-1-0.2-1.5-0.4c-0.1,0-0.2,0-0.3,0c-0.3,0-0.6,0.4-0.3,0.7
	c0.2,0.3,0.5,0.6,0.7,0.9c-0.5,0.4-1.1,0.8-1.6,1.3c0,0,0,0,0,0c0,0,0,0,0,0c0,0-0.1,0-0.1,0.1c-0.4,0.3,0.1,0.8,0.5,0.6
	c0.8-0.3,1.6-0.6,2.4-0.9c0.5,1.1,0.9,2.2,1.4,3.4c0.2,0.4,0.8,0.4,0.8-0.1c0.1-1.3,0.2-2.6,0.4-4c0.6-0.1,1.3-0.3,1.9-0.3
	C552.1,140.7,552,140,551.7,139.9z"/>
<path fill="#58595B" d="M497.4,154.5c-0.5-0.3-1-0.7-1.4-1.1c0.3-0.8,0.6-1.5,1-2.3c0.2-0.4-0.2-0.7-0.6-0.6c-0.7,0.3-1.3,0.6-2,1
	c-0.4-0.5-0.9-0.9-1.5-1.1c-0.1-0.1-0.3,0-0.4,0c-0.3-0.1-0.6,0.1-0.5,0.5c0.2,0.5,0.4,1.1,0.5,1.6c-0.8,0.4-1.6,0.9-2.3,1.4
	c-0.4,0.2-0.1,0.9,0.3,0.7c0.8-0.3,1.6-0.4,2.4-0.4c0.3,1.1,0.6,2.3,1,3.4c0.1,0.3,0.7,0.4,0.8,0c0.2-1,0.4-2,0.7-3
	c0.5,0.2,0.9,0.4,1.4,0.6C497.5,155.5,497.9,154.8,497.4,154.5z"/>
<path fill="#58595B" d="M426.9,98.4c-0.5-0.3-1-0.5-1.6-0.8c0.3-0.8,0.6-1.6,0.9-2.4c0.2-0.4-0.2-0.7-0.6-0.6
	c-0.4,0.2-0.5,0.4-0.8,0.7c-0.5,0.5-1,0.9-1.5,1.3c-1.2-0.6-2.4-1.3-3.5-2.1c-0.4-0.3-0.8,0.3-0.5,0.6c0,0.1,0,0.2,0,0.3
	c0.5,1,1.1,1.9,1.6,2.9c-1,0.7-2,1.5-3.1,2.2c-0.4,0.3-0.1,0.9,0.4,0.7c1.1-0.6,2.3-1,3.5-1.4c0.5,0.9,1,1.7,1.5,2.6
	c0.2,0.3,0.7,0.3,0.7-0.1c0.2-1.1,0.4-2.1,0.6-3.1c0.6-0.1,1.3-0.1,1.9-0.2C427.1,99.1,427.3,98.6,426.9,98.4z"/>
<path fill="#58595B" d="M445.9,59.4c-0.7-0.1-1.3-0.2-2-0.3c0.1-0.8,0.2-1.6-0.2-2.2c-0.1-0.1-0.2-0.2-0.4-0.2
	c-0.9,0.1-1.4,1.1-1.9,1.8c-0.7-0.2-1.4-0.4-2-0.7c-0.3-0.1-0.4,0.1-0.5,0.3c-0.2,0.1-0.3,0.4-0.1,0.7c0.4,0.5,0.8,1,1.2,1.6
	c-0.6,0.7-1.1,1.4-1.7,2.2c-0.3,0.4,0.1,0.8,0.5,0.6c0.8-0.4,1.5-0.7,2.3-1c0.5,1,1,1.9,1.5,2.9c0.2,0.4,0.7,0.1,0.8-0.2
	c0.1-1.3,0.3-2.5,0.4-3.8c0.8-0.3,1.5-0.6,2.3-0.8C446.5,60,446.4,59.4,445.9,59.4z"/>
<path fill="#58595B" d="M497.9,44.2c-0.8-0.1-1.6-0.2-2.3-0.2c0-0.4,0.1-0.8,0.1-1.2c0-0.3-0.3-0.5-0.5-0.4
	c-0.8,0.3-1.5,0.8-2.1,1.4c-0.1,0-0.6-0.6-0.7-0.7c0,0,0,0,0,0c-0.2-0.5-1-0.3-0.8,0.2c0,0,0,0,0,0.1c0,0.1,0,0.2,0.1,0.3
	c0.1,0.1,0.5,0.8,0.5,1c-0.7,0.8-1.3,1.7-2,2.4c-0.3,0.3,0.1,0.8,0.5,0.6c0.7-0.4,1.5-0.7,2.2-1c0.4,1.2,0.8,2.3,1.3,3.5
	c0.2,0.4,0.8,0.4,0.8-0.1c0.1-1.5,0.3-2.9,0.4-4.4c0.8-0.3,1.7-0.6,2.5-0.8C498.2,44.8,498.3,44.2,497.9,44.2z"/>
<rect x="194" y="88" fill="none" width="172" height="32.4"/>
<text transform="matrix(1 0 0 1 193.9997 100.6209)"><tspan x="0" y="0" fill="#58595B" font-family="'Moon-Light'" font-size="18" letter-spacing="19">AMAND</tspan><tspan x="160.4" y="0" fill="#58595B" font-family="'Moon-Light'" font-size="18">A </tspan></text>
<rect x="624" y="88" fill="none" width="172" height="32.4"/>
<text transform="matrix(1 0 0 1 623.9996 100.6209)"><tspan x="0" y="0" fill="#58595B" font-family="'Moon-Light'" font-size="18" letter-spacing="11">ANDERSO</tspan><tspan x="159.2" y="0" fill="#58595B" font-family="'Moon-Light'" font-size="18">N</tspan></text>
</svg>
